<!DOCTYPE svg PUBLIC "-//W3C//DTD SVG 1.1//EN" "http://www.w3.org/Graphics/SVG/1.1/DTD/svg11.dtd">
<!-- Uploaded to: SVG Repo, www.svgrepo.com, Transformed by: SVG Repo Mixer Tools -->
<svg fill="#2AB5C9" width="800px" height="800px" viewBox="0 0 32 32" xmlns="http://www.w3.org/2000/svg">
<g id="SVGRepo_bgCarrier" stroke-width="0"/>
<g id="SVGRepo_tracerCarrier" stroke-linecap="round" stroke-linejoin="round"/>
<g id="SVGRepo_iconCarrier"> <title/> <g data-name="Layer 2" id="Layer_2"> <path d="M30,1a1,1,0,0,0-1,1V4.18A3,3,0,0,0,28,4V3.13A2.12,2.12,0,0,0,25.88,1H23.13a2.11,2.11,0,0,0-1.9,1.18A2.72,2.72,0,0,0,20.28,2H6.72A2.71,2.71,0,0,0,4.11,4H4a3,3,0,0,0-1,.18V2A1,1,0,0,0,1,2V30a1,1,0,0,0,2,0V26H4v1a1,1,0,0,0,1,1H22a1,1,0,0,0,1-1V26h6v4a1,1,0,0,0,2,0V2A1,1,0,0,0,30,1ZM26,21H23v-.87a.13.13,0,0,1,.13-.13h2.75a.13.13,0,0,1,.12.13Zm-.12-3H23.13a2.11,2.11,0,0,0-1.9,1.18,2.72,2.72,0,0,0-.95-.18H6.72a2.71,2.71,0,0,0-2.61,2H4a3,3,0,0,0-1,.18V9H4v1a1,1,0,0,0,1,1H22a1,1,0,0,0,1-1V9h6V21.18A3,3,0,0,0,28,21v-.87A2.12,2.12,0,0,0,25.88,18ZM29,7H23V6h5A1,1,0,0,1,29,7ZM23,3.13A.13.13,0,0,1,23.13,3h2.75a.13.13,0,0,1,.12.13V4H23ZM6,4.72A.72.72,0,0,1,6.72,4H20.28a.72.72,0,0,1,.72.72V9H6V4.72ZM4,6V7H3A1,1,0,0,1,4,6ZM3,24a1,1,0,0,1,1-1v1Zm18,2H6V21.72A.72.72,0,0,1,6.72,21H20.28a.72.72,0,0,1,.72.72V26Zm2-2V23h5a1,1,0,0,1,1,1Z"/> </g> </g>
</svg>