<?xml version="1.0" encoding="UTF-8"?>
<svg version="1.1" xmlns="http://www.w3.org/2000/svg" width="500" height="500">
<path d="M0 0 C1.7292912 -0.00551503 1.7292912 -0.00551503 3.49351758 -0.01114148 C6.68519448 -0.02023871 9.87684115 -0.02487151 13.06852877 -0.02753079 C16.51459649 -0.03144646 19.96064949 -0.04102404 23.40670776 -0.04974365 C31.72619801 -0.06947505 40.04568942 -0.07957118 48.36519721 -0.08847144 C52.28950836 -0.0928608 56.21381818 -0.09822601 60.13812828 -0.10346031 C73.19545492 -0.12047115 86.25278075 -0.13496246 99.31011677 -0.14220905 C102.69601759 -0.14411875 106.08191841 -0.14603911 109.46781921 -0.147995 C110.73004268 -0.14872061 110.73004268 -0.14872061 112.0177656 -0.14946087 C125.63091299 -0.15775051 139.24397221 -0.18307001 152.85708115 -0.21557567 C166.85481855 -0.2487253 180.85251126 -0.26666503 194.85028809 -0.26985329 C202.70073713 -0.27201136 210.55105768 -0.28065605 218.40146828 -0.30631447 C225.09132365 -0.32812996 231.78101932 -0.33601912 238.47090624 -0.32634769 C241.87772577 -0.32183367 245.28395212 -0.32574493 248.6907692 -0.34310913 C287.28155271 -0.52868974 316.6931797 11.58823104 344.61112976 38.14717102 C345.80028992 39.22224915 345.80028992 39.22224915 347.01347351 40.31904602 C365.48854445 57.59275031 380.12916809 87.80263875 380.9914465 113.1474638 C381.0089297 115.23458996 381.01065743 117.32189186 380.99880981 119.40905762 C381.00688812 121.15238726 381.00688812 121.15238726 381.01512963 122.93093568 C381.02932473 126.78722326 381.02232619 130.64316346 381.0151825 134.49946594 C381.01925075 137.28003315 381.02775706 140.06058314 381.03598022 142.84114075 C381.05310443 149.58787492 381.05402134 156.3345157 381.04876732 163.08126595 C381.04471143 168.57137144 381.04618595 174.06144952 381.05151558 179.55155373 C381.052264 180.3355733 381.05301242 181.11959287 381.05378352 181.92737061 C381.05531515 183.52059251 381.0568535 185.11381441 381.05839849 186.70703629 C381.07210117 201.62153199 381.06670221 216.53597512 381.05521328 231.45046959 C381.04528945 245.0592733 381.05821082 258.66794087 381.08214747 272.27672359 C381.10660269 286.28712992 381.11613024 300.29747302 381.10949475 314.30790025 C381.10601595 322.15882056 381.10814509 330.00963635 381.12574577 337.86054039 C381.14054865 344.54582345 381.14099897 351.23092842 381.12367486 357.91620829 C381.11522699 361.31913524 381.11507272 364.72148753 381.12832642 368.12443733 C381.19337297 386.21750544 380.43712556 403.16380092 372.86112976 419.89717102 C372.51678894 420.68172668 372.17244812 421.46628235 371.81767273 422.27461243 C357.58587946 454.03241579 332.36861314 479.35720056 299.98612976 492.45967102 C287.09498799 497.37058217 275.02879965 500.29670776 261.22225952 500.29434204 C260.06939872 500.29801873 258.91653792 500.30169542 257.72874194 500.30548352 C254.53706504 500.31458075 251.34541837 500.31921355 248.15373075 500.32187283 C244.70766304 500.3257885 241.26161003 500.33536609 237.81555176 500.34408569 C229.49606151 500.36381709 221.1765701 500.37391322 212.85706231 500.38281348 C208.93275116 500.38720284 205.00844134 500.39256805 201.08413124 500.39780235 C188.0268046 500.41481319 174.96947877 500.4293045 161.91214275 500.43655109 C158.52624193 500.43846079 155.14034111 500.44038115 151.75444031 500.44233704 C150.49221684 500.44306265 150.49221684 500.44306265 149.20449392 500.44380292 C135.59134653 500.45209255 121.97828731 500.47741205 108.36517837 500.50991771 C94.36744097 500.54306734 80.36974826 500.56100707 66.37197143 500.56419533 C58.52152239 500.5663534 50.67120184 500.57499809 42.82079124 500.60065651 C36.13093587 500.622472 29.4412402 500.63036116 22.75135329 500.62068973 C19.34453375 500.61617571 15.9383074 500.62008697 12.53149033 500.63745117 C-18.73924435 500.78783013 -48.50178818 493.55738517 -72.38887024 472.14717102 C-73.2151593 471.42787415 -74.04144836 470.70857727 -74.89277649 469.96748352 C-77.42773148 467.73053087 -79.91445931 465.45079596 -82.38887024 463.14717102 C-83.5161554 462.11849915 -83.5161554 462.11849915 -84.66621399 461.06904602 C-98.03216469 448.3843125 -107.56123235 431.70704439 -113.76387024 414.45967102 C-113.99042297 413.83213928 -114.21697571 413.20460754 -114.45039368 412.55805969 C-115.16680541 410.43710389 -115.77805942 408.30109044 -116.38887024 406.14717102 C-116.76871944 404.88981439 -116.76871944 404.88981439 -117.15624237 403.60705662 C-120.45836359 390.88235937 -119.8251997 377.87080016 -119.80879211 364.820755 C-119.81451053 362.05475836 -119.82463758 359.28878134 -119.8344574 356.52279663 C-119.85540831 349.81463669 -119.86005815 343.10656336 -119.85826951 336.39837455 C-119.85695631 330.93787532 -119.86079434 325.47740285 -119.86819458 320.01690865 C-119.87029404 318.43748906 -119.87239164 316.85806946 -119.8744874 315.27864987 C-119.87553093 314.49224301 -119.87657446 313.70583615 -119.87764961 312.89559878 C-119.8965113 298.05492993 -119.8955147 283.21431062 -119.88868028 268.37363476 C-119.88311144 254.84126076 -119.90390936 241.30907645 -119.93704075 227.77674674 C-119.97089985 213.83748292 -119.9859307 199.89830964 -119.98132372 185.95900398 C-119.97909086 178.15100934 -119.98414675 170.34318983 -120.00921631 162.53523064 C-120.03038847 155.88516546 -120.03366614 149.2353714 -120.01491672 142.58529448 C-120.00585409 139.20212987 -120.00710837 135.819875 -120.02527237 132.43668747 C-120.21084753 95.27852603 -109.00362875 63.90297832 -82.70137024 37.14717102 C-60.73605702 15.34877193 -31.39664576 -0.00537974 0 0 Z M94.46659851 136.72138977 C91.61112976 139.14717102 91.61112976 139.14717102 88.61112976 141.14717102 C88.61112976 141.80717102 88.61112976 142.46717102 88.61112976 143.14717102 C88.04523132 143.39338196 87.47933289 143.6395929 86.89628601 143.89326477 C84.21864718 145.36253326 82.28069364 147.12469537 80.04862976 149.20967102 C72.92910644 155.72460817 65.52937762 161.76854923 57.73612976 167.45967102 C52.63085065 171.24404997 48.01382701 175.35464414 43.39677429 179.70283508 C39.22478181 183.62163938 34.89527458 187.27663342 30.43144226 190.86201477 C27.23882092 193.448834 24.11178136 196.10525595 20.98612976 198.77217102 C17.36248201 201.85964792 13.71120623 204.88639848 9.92362976 207.77217102 C5.73921689 210.97382271 1.85523039 214.45342006 -2.02558899 218.01435852 C-4.07655442 219.86531245 -6.1746097 221.60420254 -8.32637024 223.33467102 C-12.13128447 226.63704941 -14.08030588 229.60151505 -14.70137024 234.72529602 C-14.98108037 241.12366528 -14.25793492 245.02327455 -10.38887024 250.14717102 C-4.8843462 255.23885576 -0.54426359 256.45816141 6.86112976 256.77217102 C7.97874695 256.83017883 7.97874695 256.83017883 9.11894226 256.88935852 C10.94928216 256.98322211 12.7801712 257.0662682 14.61112976 257.14717102 C14.61167453 257.71186096 14.6122193 258.2765509 14.61278057 258.85835266 C14.62777257 272.62256457 14.67063159 286.38644941 14.74322033 300.15048218 C14.77748773 306.80683589 14.80259999 313.46287726 14.8066864 320.11933899 C14.81096974 326.54510249 14.83943686 332.97034837 14.88456154 339.39595032 C14.89753516 341.8454639 14.90184474 344.29503943 14.89728355 346.74458313 C14.89237701 350.18012652 14.91847583 353.61415745 14.95170593 357.04951477 C14.93876747 358.56326942 14.93876747 358.56326942 14.92556763 360.10760498 C15.0322274 366.70059123 16.32875663 371.06181822 20.61112976 376.14717102 C27.11550355 382.32190129 35.39684933 381.80451494 43.83378601 381.63545227 C45.18854456 381.62610707 46.5433202 381.61899904 47.89810181 381.61401367 C51.43468783 381.59507711 54.97021926 381.54609715 58.50639343 381.49049377 C62.12644694 381.43900884 65.74667371 381.41643784 69.36698914 381.39131165 C76.44879633 381.33796101 83.52989358 381.25281535 90.61112976 381.14717102 C90.61477539 380.27401749 90.61842102 379.40086395 90.62217712 378.50125122 C90.66024941 370.21988974 90.71731757 361.93891441 90.7950325 353.65782642 C90.8343229 349.40173754 90.86660074 345.14584984 90.88212585 340.88960266 C90.8974153 336.77202754 90.93207377 332.65500624 90.97943878 328.53767967 C90.99412726 326.97709186 91.00216346 325.41642491 91.00301361 323.8557682 C91.01803783 310.08803631 92.49560958 297.36612188 102.61112976 287.14717102 C110.77853103 279.5740713 121.14654079 275.72370558 132.28300476 275.93623352 C143.25189036 276.93005873 152.94945402 280.87744076 160.48612976 289.02217102 C167.13174446 297.24709651 169.81871538 306.13194328 169.92997742 316.66474915 C169.94504585 317.71988708 169.94504585 317.71988708 169.9604187 318.79634094 C169.99097827 321.09036032 170.00820885 323.38426454 170.02519226 325.67842102 C170.04392592 327.28125481 170.06350093 328.88407896 170.08387756 330.4868927 C170.13497288 334.68218783 170.17471876 338.87751485 170.21202087 343.07295227 C170.25220309 347.36339562 170.30323021 351.65370889 170.35331726 355.94404602 C170.44980856 364.34499847 170.53429809 372.74601587 170.61112976 381.14717102 C178.261253 381.26361005 185.91128304 381.35216017 193.56209373 381.40623188 C197.11570671 381.43219923 200.66870836 381.46735586 204.2219696 381.52436829 C208.31789124 381.58966785 212.41318237 381.61345731 216.50956726 381.63545227 C217.77038116 381.6612587 219.03119507 381.68706512 220.33021545 381.71365356 C227.83388599 381.7160141 234.69581572 381.18825075 240.61112976 376.14717102 C245.76449386 370.17024813 246.33618532 364.72819796 246.27055359 357.04951477 C246.28103729 355.96570023 246.291521 354.88188568 246.30232239 353.76522827 C246.33098244 350.20474807 246.324791 346.6452455 246.31816101 343.08467102 C246.33128141 340.60744514 246.34658668 338.13022994 246.36398315 335.6530304 C246.40380522 329.14945319 246.4140219 322.64615605 246.41801453 316.14247131 C246.42735108 309.49941017 246.46476794 302.85654835 246.49980164 296.21357727 C246.56434933 283.19145648 246.59856692 270.16944045 246.61112976 257.14717102 C247.71102234 257.10108704 248.81091492 257.05500305 249.94413757 257.00752258 C251.4008695 256.93480328 252.85757394 256.86153198 254.31425476 256.78779602 C255.03757996 256.75895325 255.76090515 256.73011047 256.50614929 256.70039368 C264.10027319 256.29341098 268.01577415 253.94216937 273.04862976 248.52217102 C276.40542043 243.4198492 276.16098238 238.05392115 275.61112976 232.14717102 C271.50969226 221.01469781 258.55485954 213.34298214 249.61112976 206.14717102 C242.89815545 200.71333066 236.28977602 195.17742234 229.75273132 189.53437805 C225.52178802 185.8939893 221.20780738 182.38237881 216.79472351 178.96357727 C214.61112976 177.14717102 214.61112976 177.14717102 212.24003601 174.74482727 C209.37367186 171.91253579 206.30471615 169.46500958 203.11112976 167.02217102 C192.72653529 158.97128616 182.79146495 150.40216181 172.96220398 141.68476868 C158.99348043 129.31184034 146.77039052 118.70406449 127.28691101 118.86592102 C113.8561758 119.89356495 104.19581538 128.28403734 94.46659851 136.72138977 Z " fill="#2981D1" transform="translate(119.38887023925781,-0.1471710205078125)"/>
<path d="M0 0 C-2.22189824 2.22189824 -4.08482708 2.92598892 -7 4 C-6.01 4.99 -6.01 4.99 -5 6 C-6.65614657 6.38218767 -8.32457024 6.71395102 -10 7 C-10.495 6.505 -10.495 6.505 -11 6 C-13.19050021 6.09017996 -15.378466 6.24666208 -17.5625 6.4375 C-19.35880859 6.59025391 -19.35880859 6.59025391 -21.19140625 6.74609375 C-22.11824219 6.82988281 -23.04507813 6.91367188 -24 7 C-24.33 8.32 -24.66 9.64 -25 11 C-25.556875 10.731875 -26.11375 10.46375 -26.6875 10.1875 C-27.450625 10.125625 -28.21375 10.06375 -29 10 C-30.1446875 11.2065625 -30.1446875 11.2065625 -31.3125 12.4375 C-34.78393422 15.74747216 -36.3658038 15 -41 15 C-43.81331378 17.39583651 -43.81331378 17.39583651 -46 20 C-46.66 20 -47.32 20 -48 20 C-48.495 21.485 -48.495 21.485 -49 23 C-49.88042969 22.92652344 -50.76085938 22.85304688 -51.66796875 22.77734375 C-57.4210199 23.16177976 -61.18677581 26.8862966 -65 31 C-66.09105184 33.64123409 -66.1209176 35.09797764 -66 38 C-66.99 37.67 -67.98 37.34 -69 37 C-73.58501564 38.99859656 -75.31114677 41.92335156 -78 46 C-78.63292969 46.2990625 -79.26585937 46.598125 -79.91796875 46.90625 C-82.58643128 48.30806897 -83.61596335 49.9245497 -85.25 52.4375 C-85.77078125 53.21996094 -86.2915625 54.00242188 -86.828125 54.80859375 C-88.23578349 57.02673748 -88.23578349 57.02673748 -88 60 C-88.7425 60.721875 -89.485 61.44375 -90.25 62.1875 C-93.38274678 65.39144557 -95.67886754 68.68487254 -97 73 C-96.60771313 75.06410835 -96.60771313 75.06410835 -96 77 C-96.4375 79.75 -96.4375 79.75 -97 82 C-97.99 81.67 -98.98 81.34 -100 81 C-101.97324142 84.68910352 -103.39407954 87.85954356 -104 92 C-104.165 93.051875 -104.33 94.10375 -104.5 95.1875 C-104.77805677 97.3076829 -105.03033689 99.43328987 -105.1796875 101.56640625 C-105.27636719 102.89478516 -105.27636719 102.89478516 -105.375 104.25 C-105.42398438 105.08015625 -105.47296875 105.9103125 -105.5234375 106.765625 C-106.08264176 109.38746794 -106.96065053 110.32053573 -109 112 C-109.33 111.34 -109.66 110.68 -110 110 C-110.66 110 -111.32 110 -112 110 C-108.91813221 83.13715241 -96.84645588 58.33386423 -78 39 C-77.23171875 38.18144531 -76.4634375 37.36289062 -75.671875 36.51953125 C-61.09231326 21.35208395 -22.71332666 -7.86230538 0 0 Z " fill="#76ACEF" transform="translate(112,1)"/>
<path d="M0 0 C0.99 0.495 0.99 0.495 2 1 C1.99555878 1.83858551 1.99111755 2.67717102 1.98654175 3.54116821 C1.94641372 11.45657213 1.91598952 19.37194171 1.89637566 27.28742409 C1.88595289 31.35653662 1.87182131 35.42556487 1.84912109 39.49462891 C1.82733884 43.42388102 1.81542004 47.35305223 1.81024551 51.28236008 C1.80655941 52.77901864 1.79936137 54.27567293 1.78853989 55.77229691 C1.77395322 57.87384754 1.77202502 59.97506678 1.77294922 62.07666016 C1.768508 63.27134918 1.76406677 64.46603821 1.75949097 65.69692993 C2.00800452 69.10993141 2.8523846 71.79305036 4 75 C4 75.99 4 76.98 4 78 C-2.75 80.125 -2.75 80.125 -5 79 C-6.71517585 78.89928376 -8.43422725 78.86163863 -10.15234375 78.85473633 C-11.22685791 78.84835648 -12.30137207 78.84197662 -13.40844727 78.83540344 C-14.57303467 78.83429062 -15.73762207 78.8331778 -16.9375 78.83203125 C-18.12851318 78.82870285 -19.31952637 78.82537445 -20.54663086 78.82194519 C-23.0685182 78.8168754 -25.59041226 78.81453688 -28.11230469 78.81469727 C-31.98383545 78.81250914 -35.85508214 78.79434916 -39.7265625 78.77539062 C-42.17187402 78.77245713 -44.6171869 78.77047204 -47.0625 78.76953125 C-48.2270874 78.76234573 -49.3916748 78.75516022 -50.59155273 78.74775696 C-52.20332397 78.7523719 -52.20332397 78.7523719 -53.84765625 78.75708008 C-54.79648682 78.75565506 -55.74531738 78.75423004 -56.72290039 78.75276184 C-59.19871429 78.78094819 -59.19871429 78.78094819 -61 81 C-59.35 82.98 -57.7 84.96 -56 87 C-60.21928204 85.43730295 -62.18373412 82.37951905 -65 79 C-67.14980497 77.62745412 -67.14980497 77.62745412 -69 77 C-68.67 76.01 -68.34 75.02 -68 74 C-67.34 74.33 -66.68 74.66 -66 75 C-63.96839528 75.12037961 -61.9329256 75.17739122 -59.89794922 75.20532227 C-58.59881592 75.22550415 -57.29968262 75.24568604 -55.96118164 75.26647949 C-54.57568513 75.28324925 -53.19018708 75.29989251 -51.8046875 75.31640625 C-50.54857666 75.33505737 -49.29246582 75.3537085 -47.99829102 75.3729248 C-43.29060124 75.44140081 -38.58279174 75.50143545 -33.875 75.5625 C-18.096875 75.7790625 -18.096875 75.7790625 -2 76 C-2 52.24 -2 28.48 -2 4 C-1.34 4 -0.68 4 0 4 C0 2.68 0 1.36 0 0 Z " fill="#5F90B5" transform="translate(212,305)"/>
<path d="M0 0 C0.99 0.66 1.98 1.32 3 2 C1.62328125 3.17755859 1.62328125 3.17755859 0.21875 4.37890625 C-2.31222797 6.54398047 -4.8386056 8.7143011 -7.36328125 10.88671875 C-9.42822258 12.66145211 -11.50295367 14.41397536 -13.60546875 16.14453125 C-18.31897681 20.06213739 -21.54391162 23.19541465 -22.30859375 29.57421875 C-22.58147877 35.63557399 -22.16998023 40.39864251 -18 45 C-12.17300822 50.88832853 -5.10242281 50.67998222 2.68359375 50.859375 C6 51 6 51 7 52 C7.09558036 53.44213999 7.12188394 54.88894079 7.12025452 56.33424377 C7.12162918 57.26958954 7.12300385 58.2049353 7.12442017 59.16862488 C7.11902725 60.72012993 7.11902725 60.72012993 7.11352539 62.30297852 C7.11367142 63.38577087 7.11381744 64.46856323 7.1139679 65.58416748 C7.11326823 69.18243374 7.10547333 72.78064897 7.09765625 76.37890625 C7.09579226 78.86612418 7.09436827 81.35334248 7.09336853 83.84056091 C7.0899335 89.73021191 7.08204277 95.6198439 7.07201904 101.50948709 C7.05976246 108.87025374 7.05437791 116.23102264 7.04882812 123.59179688 C7.03808815 136.72787398 7.02120089 149.86393583 7 163 C6.67 163 6.34 163 6 163 C5.505 109.045 5.505 109.045 5 54 C0.38 54 -4.24 54 -9 54 C-9.99 56.475 -9.99 56.475 -11 59 C-11.598125 58.236875 -12.19625 57.47375 -12.8125 56.6875 C-15.93617949 52.76762729 -15.93617949 52.76762729 -20 50 C-21.485 50.495 -21.485 50.495 -23 51 C-23.60461366 48.14967844 -24.09476405 45.32480615 -24.5 42.4375 C-24.88698389 39.22323948 -24.88698389 39.22323948 -25.5625 37.0625 C-26.72294124 31.59184844 -26.35903989 27.01295977 -24 22 C-24 21.34 -24 20.68 -24 20 C-23.34 20 -22.68 20 -22 20 C-22.33 18.68 -22.66 17.36 -23 16 C-22.34 16 -21.68 16 -21 16 C-20.67 15.01 -20.34 14.02 -20 13 C-18.35 12.67 -16.7 12.34 -15 12 C-14.67 10.35 -14.34 8.7 -14 7 C-12.02 7 -10.04 7 -8 7 C-8 6.34 -8 5.68 -8 5 C-7.01 5 -6.02 5 -5 5 C-5 4.34 -5 3.68 -5 3 C-2.5 1.375 -2.5 1.375 0 0 Z " fill="#589ADF" transform="translate(128,205)"/>
<path d="M0 0 C0.66 0 1.32 0 2 0 C2 23.76 2 47.52 2 72 C11.714375 71.855625 21.42875 71.71125 31.4375 71.5625 C34.48798584 71.51939697 37.53847168 71.47629395 40.68139648 71.43188477 C43.11963425 71.39373176 45.55786705 71.35526011 47.99609375 71.31640625 C49.24555786 71.29993042 50.49502197 71.28345459 51.78234863 71.26647949 C58.25845018 71.15909105 64.57780031 70.85084305 71 70 C71 69.34 71 68.68 71 68 C72.32 67.67 73.64 67.34 75 67 C67.75 74.25 67.75 74.25 61.53076172 74.31884766 C60.53545944 74.33391609 60.53545944 74.33391609 59.52005005 74.34928894 C57.32327148 74.38021988 55.12661531 74.39718312 52.9296875 74.4140625 C51.40795837 74.43276623 49.88623969 74.45233904 48.36453247 74.4727478 C44.35656895 74.52415924 40.34857177 74.56373649 36.3404541 74.60089111 C32.25162366 74.64087448 28.16293432 74.69199259 24.07421875 74.7421875 C16.04957541 74.83905339 8.02486247 74.92342379 0 75 C-1.46858473 72.06283054 -1.12734295 69.45852756 -1.12939453 66.17944336 C-1.13202301 65.1280291 -1.13202301 65.1280291 -1.13470459 64.05537415 C-1.13911366 61.73350566 -1.13618875 59.41171304 -1.1328125 57.08984375 C-1.13348573 55.4808399 -1.13445592 53.87183614 -1.13571167 52.26283264 C-1.1371873 48.88932325 -1.13503812 45.51584031 -1.13037109 42.14233398 C-1.12466931 37.80867124 -1.1279565 33.47507036 -1.13394356 29.14140987 C-1.13754891 25.81897003 -1.13641079 22.49654497 -1.13381577 19.17410469 C-1.13314666 17.57563838 -1.13397435 15.97717074 -1.13629532 14.37870598 C-1.13882191 12.14948825 -1.1349814 9.92037222 -1.12939453 7.69116211 C-1.12859894 6.42034286 -1.12780334 5.14952362 -1.12698364 3.8401947 C-1 1 -1 1 0 0 Z M75 66 C77 67 77 67 77 67 Z " fill="#6A9DBD" transform="translate(288,309)"/>
<path d="M0 0 C1.65 0.33 3.3 0.66 5 1 C4.31550781 1.54011719 3.63101563 2.08023438 2.92578125 2.63671875 C-0.37420305 5.30226014 -3.59693001 8.04628251 -6.8125 10.8125 C-7.43777588 11.3494751 -8.06305176 11.8864502 -8.70727539 12.43969727 C-11.7945596 15.09367842 -14.87607082 17.75369204 -17.9375 20.4375 C-18.54078125 20.96601563 -19.1440625 21.49453125 -19.765625 22.0390625 C-21.03824084 23.15593864 -22.31019253 24.27357524 -23.58007812 25.39355469 C-30.74677252 31.70669657 -37.96461632 37.85430859 -45.58129883 43.61914062 C-49.90506698 46.89790343 -53.9592576 50.38387799 -58 54 C-60.57528718 56.28009616 -63.16124051 58.54772151 -65.75 60.8125 C-66.40081543 61.38846924 -67.05163086 61.96443848 -67.72216797 62.55786133 C-68.65633545 63.37420044 -68.65633545 63.37420044 -69.609375 64.20703125 C-70.16592773 64.6966333 -70.72248047 65.18623535 -71.29589844 65.69067383 C-73.10660474 67.08190848 -74.93085897 68.04481624 -77 69 C-77 68.34 -77 67.68 -77 67 C-76.34 67 -75.68 67 -75 67 C-74.67 65.68 -74.34 64.36 -74 63 C-73.01 63 -72.02 63 -71 63 C-71 62.34 -71 61.68 -71 61 C-70.34 60.34 -69.68 59.68 -69 59 C-68.01 59 -67.02 59 -66 59 C-66 57.68 -66 56.36 -66 55 C-65.01 55 -64.02 55 -63 55 C-63 54.34 -63 53.68 -63 53 C-61.68 53 -60.36 53 -59 53 C-58.855625 52.401875 -58.71125 51.80375 -58.5625 51.1875 C-58.1127561 49.43849596 -57.57107659 47.71322977 -57 46 C-55.66961551 45.6550855 -54.33542939 45.32483418 -53 45 C-49.05033186 42.70919248 -46.85850442 41.14589447 -45 37 C-44.01 36.67 -43.02 36.34 -42 36 C-41.773125 35.236875 -41.54625 34.47375 -41.3125 33.6875 C-39.56275439 30.10468757 -37.47528347 29.52598624 -33.875 28.08984375 C-31.55873883 26.74351694 -30.97750415 25.44885153 -30 23 C-30.99 23 -31.98 23 -33 23 C-33 22.34 -33 21.68 -33 21 C-31.88625 21.309375 -31.88625 21.309375 -30.75 21.625 C-27.60897098 22.05332214 -26.54144059 21.84035353 -24 20 C-23.71125 19.38125 -23.4225 18.7625 -23.125 18.125 C-22 16 -22 16 -18.9375 14.0625 C-15.78774356 12.29366751 -15.78774356 12.29366751 -15.125 9.25 C-15.08375 8.5075 -15.0425 7.765 -15 7 C-14.01 6.9175 -13.02 6.835 -12 6.75 C-7.52543052 6.13691993 -3.90429315 4.18031955 0 2 C0 1.34 0 0.68 0 0 Z " fill="#408EDD" transform="translate(225,123)"/>
<path d="M0 0 C5.61 0 11.22 0 17 0 C16.67 0.99 16.34 1.98 16 3 C11.71 3 7.42 3 3 3 C3.00444122 4.32940109 3.00888245 5.65880219 3.01345825 7.02848816 C3.05398302 19.5503603 3.08397419 32.07221915 3.10362434 44.59414196 C3.11406623 51.03194599 3.12823296 57.46969712 3.15087891 63.9074707 C3.17259264 70.11903212 3.18456557 76.33054262 3.18975449 82.54213905 C3.19345287 84.91322951 3.20067476 87.28431716 3.21146011 89.65538597 C3.22595531 92.97368796 3.22797874 96.29177892 3.22705078 99.61010742 C3.23424133 100.59266006 3.24143188 101.57521271 3.24884033 102.58753967 C3.23499636 107.15559497 3.20323278 110.86393398 1 115 C0.67 115 0.34 115 0 115 C0 77.05 0 39.1 0 0 Z " fill="#34709D" transform="translate(365,257)"/>
<path d="M0 0 C11.00082708 -0.6346631 21.24229814 2.22268298 30 9 C33.98400872 12.67450722 37.33438827 16.07712167 39.125 21.25 C38.9888547 24.24519664 38.33610664 26.32778672 37 29 C35.9375 27.125 35.9375 27.125 35 25 C35.33 24.34 35.66 23.68 36 23 C35.34 23 34.68 23 34 23 C32.94228261 21.36935236 31.94726954 19.69719127 31 18 C30.34 17.01 29.68 16.02 29 15 C28.01 15 27.02 15 26 15 C25.67 13.35 25.34 11.7 25 10 C24.401875 10.350625 23.80375 10.70125 23.1875 11.0625 C21 12 21 12 18 11 C18 9.02 18 7.04 18 5 C16.41773035 4.80372609 14.83410729 4.61834462 13.25 4.4375 C12.36828125 4.33308594 11.4865625 4.22867187 10.578125 4.12109375 C8.11567549 4.00543324 6.33461936 4.26361305 4 5 C4 4.34 4 3.68 4 3 C2.02 3.33 0.04 3.66 -2 4 C-1.34 2.68 -0.68 1.36 0 0 Z " fill="#3B75A7" transform="translate(246,275)"/>
<path d="M0 0 C0.65484375 0.1546875 1.3096875 0.309375 1.984375 0.46875 C6.45145391 1.25569654 10.94606219 1.39048183 15.46875 1.60546875 C20.89698508 1.89698508 20.89698508 1.89698508 22 3 C22.09558036 4.44213999 22.12188394 5.88894079 22.12025452 7.33424377 C22.12162918 8.26958954 22.12300385 9.2049353 22.12442017 10.16862488 C22.12082489 11.20296158 22.11722961 12.23729828 22.11352539 13.30297852 C22.11367142 14.38577087 22.11381744 15.46856323 22.1139679 16.58416748 C22.11326823 20.18243374 22.10547333 23.78064897 22.09765625 27.37890625 C22.09579226 29.86612418 22.09436827 32.35334248 22.09336853 34.84056091 C22.0899335 40.73021191 22.08204277 46.6198439 22.07201904 52.50948709 C22.05976246 59.87025374 22.05437791 67.23102264 22.04882812 74.59179688 C22.03808815 87.72787398 22.02120089 100.86393583 22 114 C21.67 114 21.34 114 21 114 C20.505 60.045 20.505 60.045 20 5 C15.38 5 10.76 5 6 5 C3 5 3 5 1.3125 3.625 C0 2 0 2 0 0 Z " fill="#6998C1" transform="translate(113,254)"/>
<path d="M0 0 C2.47923801 -0.02685095 4.9581884 -0.04676547 7.4375 -0.0625 C8.14455078 -0.07087891 8.85160156 -0.07925781 9.58007812 -0.08789062 C11.38693559 -0.09653588 13.19387603 -0.05220011 15 0 C16 1 16 1 16.09765625 4.59765625 C16.0909822 6.08596867 16.07902183 7.57426432 16.0625 9.0625 C16.05798828 9.82111328 16.05347656 10.57972656 16.04882812 11.36132812 C16.0370068 13.24091871 16.01907078 15.12046899 16 17 C12.50116255 15.41987986 11.69563342 14.39126684 10 11 C9.1028125 10.566875 9.1028125 10.566875 8.1875 10.125 C4.05438487 7.99939793 1.44652086 4.33956257 0 0 Z " fill="#235E98" transform="translate(118,258)"/>
<path d="M0 0 C2.475 0.495 2.475 0.495 5 1 C4.31808594 1.53753906 3.63617188 2.07507813 2.93359375 2.62890625 C-0.41419882 5.33477854 -3.67770678 8.12684944 -6.9375 10.9375 C-9.28830091 12.96229602 -11.64251632 14.98298956 -14 17 C-14.55333008 17.47735596 -15.10666016 17.95471191 -15.67675781 18.4465332 C-18.6734682 20.99964552 -21.23163876 22.7808243 -25 24 C-24.3663448 21.04294238 -23.66604512 18.53873542 -22 16 C-20.989375 15.360625 -19.97875 14.72125 -18.9375 14.0625 C-15.78774356 12.29366751 -15.78774356 12.29366751 -15.125 9.25 C-15.08375 8.5075 -15.0425 7.765 -15 7 C-14.01 6.9175 -13.02 6.835 -12 6.75 C-7.52543052 6.13691993 -3.90429315 4.18031955 0 2 C0 1.34 0 0.68 0 0 Z " fill="#4C95E0" transform="translate(225,123)"/>
<path d="M0 0 C0.33 0 0.66 0 1 0 C1.40625 2.06640625 1.40625 2.06640625 1 5 C-0.8869378 7.59609635 -3.17307944 9.73702009 -5.5 11.9375 C-6.1405835 12.55705566 -6.78116699 13.17661133 -7.44116211 13.81494141 C-19.03942846 24.90408715 -19.03942846 24.90408715 -23.71484375 25.1328125 C-24.84599609 25.06707031 -24.84599609 25.06707031 -26 25 C-26 25.66 -26 26.32 -26 27 C-26.99 26.67 -27.98 26.34 -29 26 C-20.58823529 19.52941176 -20.58823529 19.52941176 -16 18 C-15.67 16.35 -15.34 14.7 -15 13 C-14.01 13 -13.02 13 -12 13 C-11.835 12.071875 -11.67 11.14375 -11.5 10.1875 C-10 7 -10 7 -8.15625 6.07421875 C-6.72326495 5.609537 -5.2856518 5.15888379 -3.84375 4.72265625 C-1.77507478 4.11088564 -1.77507478 4.11088564 -0.5 1.8125 C-0.335 1.214375 -0.17 0.61625 0 0 Z " fill="#1674AA" transform="translate(469,451)"/>
<path d="M0 0 C-2.22189824 2.22189824 -4.08482708 2.92598892 -7 4 C-6.34 4.66 -5.68 5.32 -5 6 C-6.65614657 6.38218767 -8.32457024 6.71395102 -10 7 C-10.33 6.67 -10.66 6.34 -11 6 C-12.71166097 6.06514973 -14.42073889 6.20318076 -16.125 6.375 C-17.60806641 6.52388672 -17.60806641 6.52388672 -19.12109375 6.67578125 C-22.42833349 7.04823837 -25.71159703 7.48847065 -29 8 C-29.33 7.34 -29.66 6.68 -30 6 C-26.79352624 5.01467265 -23.58451996 4.03785481 -20.375 3.0625 C-19.47136719 2.78470703 -18.56773438 2.50691406 -17.63671875 2.22070312 C-4.80963452 -1.66487349 -4.80963452 -1.66487349 0 0 Z " fill="#73AFF3" transform="translate(112,1)"/>
<path d="M0 0 C0.8971875 0.309375 0.8971875 0.309375 1.8125 0.625 C1.173125 0.975625 0.53375 1.32625 -0.125 1.6875 C-3.00913832 4.39684206 -2.8975822 6.78358911 -3.1875 10.625 C-4.1775 10.295 -5.1675 9.965 -6.1875 9.625 C-9.70071078 11.15639957 -11.1198123 12.52244288 -13.25 15.75 C-15.1875 18.625 -15.1875 18.625 -17.4375 19.5 C-18.015 19.54125 -18.5925 19.5825 -19.1875 19.625 C-19.5175 18.635 -19.8475 17.645 -20.1875 16.625 C-17.75411391 14.16256523 -15.31509787 11.70578261 -12.875 9.25 C-11.83956055 8.20199219 -11.83956055 8.20199219 -10.78320312 7.1328125 C-10.11611328 6.4625 -9.44902344 5.7921875 -8.76171875 5.1015625 C-8.14901123 4.48361816 -7.53630371 3.86567383 -6.9050293 3.22900391 C-2.91280864 -0.49933862 -2.91280864 -0.49933862 0 0 Z M-21.1875 19.625 C-20.5275 19.955 -19.8675 20.285 -19.1875 20.625 C-20.1775 21.615 -21.1675 22.605 -22.1875 23.625 C-21.8575 22.305 -21.5275 20.985 -21.1875 19.625 Z " fill="#66A1EE" transform="translate(49.1875,28.375)"/>
<path d="M0 0 C0.66 0 1.32 0 2 0 C0.55814579 5.21161829 -1.80708522 9.14954192 -4.8125 13.5625 C-5.45155273 14.53219727 -5.45155273 14.53219727 -6.10351562 15.52148438 C-8.7492911 19.45612476 -11.53677721 22.76061207 -15 26 C-15 24.68 -15 23.36 -15 22 C-15.66 22 -16.32 22 -17 22 C-17 21.34 -17 20.68 -17 20 C-16.01 19.67 -15.02 19.34 -14 19 C-13.34 19.33 -12.68 19.66 -12 20 C-12.061875 19.2575 -12.12375 18.515 -12.1875 17.75 C-11.91951912 13.81961382 -10.13610922 12.09241271 -7.375 9.4375 C-5.74053524 7.93365899 -5.74053524 7.93365899 -5 5 C-4.01 5 -3.02 5 -2 5 C-2 4.34 -2 3.68 -2 3 C-1.34 3 -0.68 3 0 3 C0 2.01 0 1.02 0 0 Z " fill="#3585B3" transform="translate(485,429)"/>
<path d="M0 0 C4.24480464 -0.33292585 6.35542625 -0.43885872 9.9375 2 C10.618125 2.66 11.29875 3.32 12 4 C12.33 3.34 12.66 2.68 13 2 C13.66 2.66 14.32 3.32 15 4 C14.625 7.125 14.625 7.125 14 10 C15.32 10.66 16.64 11.32 18 12 C18 12.99 18 13.98 18 15 C15.17281381 13.69124646 12.90757461 12.24296047 10.546875 10.21484375 C9.928125 9.68439453 9.309375 9.15394531 8.671875 8.60742188 C8.03765625 8.05634766 7.4034375 7.50527344 6.75 6.9375 C6.1003125 6.38255859 5.450625 5.82761719 4.78125 5.25585938 C3.16545231 3.8624036 1.57983418 2.43410081 0 1 C0 0.67 0 0.34 0 0 Z " fill="#3289D5" transform="translate(296,145)"/>
<path d="M0 0 C1.67255859 0.25716797 1.67255859 0.25716797 3.37890625 0.51953125 C6.0753357 1.10840665 8.06704782 1.81391279 10.4375 3.1875 C9.81875 3.47625 9.2 3.765 8.5625 4.0625 C6.30424235 5.12470042 6.30424235 5.12470042 4.4375 7.1875 C3.4475 7.1875 2.4575 7.1875 1.4375 7.1875 C1.4375 6.5275 1.4375 5.8675 1.4375 5.1875 C0.1175 4.8575 -1.2025 4.5275 -2.5625 4.1875 C-2.5625 3.5275 -2.5625 2.8675 -2.5625 2.1875 C-3.8825 2.5175 -5.2025 2.8475 -6.5625 3.1875 C-6.5625 3.8475 -6.5625 4.5075 -6.5625 5.1875 C-7.8825 5.5175 -9.2025 5.8475 -10.5625 6.1875 C-11.5625 1.3125 -11.5625 1.3125 -11.5625 0.1875 C-7.44186471 -0.89849921 -4.19080124 -0.6749958 0 0 Z " fill="#368AD9" transform="translate(395.5625,0.8125)"/>
<path d="M0 0 C0.65484375 0.1546875 1.3096875 0.309375 1.984375 0.46875 C6.45145391 1.25569654 10.94606219 1.39048183 15.46875 1.60546875 C20.89698508 1.89698508 20.89698508 1.89698508 22 3 C22.08631874 4.34267413 22.10706473 5.68974322 22.09765625 7.03515625 C22.09443359 7.84404297 22.09121094 8.65292969 22.08789062 9.48632812 C22.07951172 10.33646484 22.07113281 11.18660156 22.0625 12.0625 C22.05798828 12.91650391 22.05347656 13.77050781 22.04882812 14.65039062 C22.03700373 16.76695663 22.01906769 18.88348685 22 21 C21.67 21 21.34 21 21 21 C20.67 15.72 20.34 10.44 20 5 C17.751875 5 15.50375 5 13.1875 5 C3 5 3 5 1.3125 3.625 C0 2 0 2 0 0 Z " fill="#698BAB" transform="translate(113,254)"/>
<path d="M0 0 C0.66 0 1.32 0 2 0 C2.0825 1.27875 2.165 2.5575 2.25 3.875 C2.64360379 7.57371794 3.51139603 10.53420614 5 13.9375 C7.16326679 18.93025706 7.76999522 23.5948876 8 29 C5.19161009 26.19161009 4.54538399 22.83986324 3.4375 19.125 C3.10588867 18.04412109 3.10588867 18.04412109 2.76757812 16.94140625 C0.94422511 10.95904561 -0.12080268 6.28173926 0 0 Z " fill="#85B5DA" transform="translate(1,391)"/>
<path d="M0 0 C0.4125 0.45375 0.825 0.9075 1.25 1.375 C3.07309171 3.06787087 4.77506312 3.92341764 7 5 C8.97303774 6.97303774 9.77145934 8.54291869 11 11 C11.66 11.66 12.32 12.32 13 13 C12.625 15.125 12.625 15.125 12 17 C11.401875 16.236875 10.80375 15.47375 10.1875 14.6875 C7.06382051 10.76762729 7.06382051 10.76762729 3 8 C2.01 8.33 1.02 8.66 0 9 C-0.84454356 5.62182575 -1.10844919 3.32534757 0 0 Z " fill="#5094D8" transform="translate(105,247)"/>
<path d="M0 0 C0.99 0.33 1.98 0.66 3 1 C0.18780345 4.75180105 -2.77552464 7.64206195 -6.4375 10.5625 C-7.82775391 11.67818359 -7.82775391 11.67818359 -9.24609375 12.81640625 C-10.15488281 13.53699219 -11.06367188 14.25757813 -12 15 C-13.66688972 16.33305447 -15.33362842 17.66629789 -17 19 C-17.33 18.34 -17.66 17.68 -18 17 C-17.34 17 -16.68 17 -16 17 C-15.67 15.68 -15.34 14.36 -15 13 C-14.01 13 -13.02 13 -12 13 C-12 12.34 -12 11.68 -12 11 C-11.34 10.34 -10.68 9.68 -10 9 C-9.01 9 -8.02 9 -7 9 C-7 7.68 -7 6.36 -7 5 C-6.01 5 -5.02 5 -4 5 C-4 4.34 -4 3.68 -4 3 C-2.68 3 -1.36 3 0 3 C0 2.01 0 1.02 0 0 Z " fill="#73A8DC" transform="translate(166,173)"/>
<path d="M0 0 C-0.33 0.99 -0.66 1.98 -1 3 C-1.556875 2.731875 -2.11375 2.46375 -2.6875 2.1875 C-3.8321875 2.0946875 -3.8321875 2.0946875 -5 2 C-5.763125 2.825 -6.52625 3.65 -7.3125 4.5 C-8.199375 5.325 -9.08625 6.15 -10 7 C-13.8125 6.8125 -13.8125 6.8125 -17 6 C-16.34 5.67 -15.68 5.34 -15 5 C-15 4.01 -15 3.02 -15 2 C-9.37129115 -0.93161919 -6.22833095 -1.2019586 0 0 Z " fill="#74ABF1" transform="translate(88,9)"/>
<path d="M0 0 C8.03571429 0.9375 8.03571429 0.9375 12 2 C10.38050958 3.50594681 8.75424026 5.00460668 7.125 6.5 C5.76761719 7.75296875 5.76761719 7.75296875 4.3828125 9.03125 C2 11 2 11 0 11 C0.55728913 7.65626525 1.35173889 4.96687001 3 2 C2.01 2 1.02 2 0 2 C0 1.34 0 0.68 0 0 Z " fill="#5DA2E5" transform="translate(192,144)"/>
<path d="M0 0 C2.97 0 5.94 0 9 0 C8.875 2.3125 8.875 2.3125 8 5 C4.28337238 7.44959548 1.43633875 8.39144165 -3 8 C-2.505 7.236875 -2.01 6.47375 -1.5 5.6875 C0.24368308 3.07636249 0.24368308 3.07636249 0 0 Z " fill="#257BB0" transform="translate(425,481)"/>
<path d="M0 0 C0.66 0 1.32 0 2 0 C1.68676801 7.36095182 0.06085395 13.30883089 -3 20 C-3.33 20 -3.66 20 -4 20 C-4.05437607 18.41705218 -4.09296271 16.83355744 -4.125 15.25 C-4.14820313 14.36828125 -4.17140625 13.4865625 -4.1953125 12.578125 C-3.98799885 9.84158485 -3.33809416 8.36134264 -2 6 C-1.31039038 4.00779443 -0.63920943 2.00894394 0 0 Z " fill="#428BB4" transform="translate(496,396)"/>
<path d="M0 0 C0.33 0 0.66 0 1 0 C0.95875 0.928125 0.9175 1.85625 0.875 2.8125 C0.72863661 6.15809719 0.72863661 6.15809719 3 9 C-0.58546996 9 -1.65261559 8.12884133 -4.5625 6.125 C-5.34753906 5.59132813 -6.13257813 5.05765625 -6.94140625 4.5078125 C-9 3 -9 3 -11 1 C-10.28972656 1.01160156 -9.57945312 1.02320312 -8.84765625 1.03515625 C-7.92855469 1.04417969 -7.00945312 1.05320312 -6.0625 1.0625 C-4.68771484 1.07990234 -4.68771484 1.07990234 -3.28515625 1.09765625 C-1.03406673 1.25949049 -1.03406673 1.25949049 0 0 Z " fill="#4990D8" transform="translate(279,122)"/>
<path d="M0 0 C2.97 0 5.94 0 9 0 C9 0.66 9 1.32 9 2 C8.01 2 7.02 2 6 2 C6 3.32 6 4.64 6 6 C5.34 6.66 4.68 7.32 4 8 C3.01 8 2.02 8 1 8 C1 8.66 1 9.32 1 10 C0.34 10 -0.32 10 -1 10 C-0.67 6.7 -0.34 3.4 0 0 Z " fill="#3A8FE4" transform="translate(153,176)"/>
<path d="M0 0 C7.26 0 14.52 0 22 0 C22 0.33 22 0.66 22 1 C21.11699219 1.02578125 20.23398438 1.0515625 19.32421875 1.078125 C12.0064668 1.42396935 5.88751747 2.34261478 -0.890625 5.16015625 C-3 6 -3 6 -5 6 C-5 5.01 -5 4.02 -5 3 C-3.35 2.67 -1.7 2.34 0 2 C0 1.34 0 0.68 0 0 Z " fill="#9AC7E9" transform="translate(235,118)"/>
<path d="M0 0 C6.0018137 -0.21824777 11.19233704 0.4943096 17 2 C17 2.33 17 2.66 17 3 C16.09507812 3.09087891 16.09507812 3.09087891 15.171875 3.18359375 C13.97304688 3.30927734 13.97304688 3.30927734 12.75 3.4375 C11.96109375 3.51871094 11.1721875 3.59992188 10.359375 3.68359375 C8.17635361 3.97634993 6.1226818 4.42064419 4 5 C4 4.34 4 3.68 4 3 C2.02 3.33 0.04 3.66 -2 4 C-1.34 2.68 -0.68 1.36 0 0 Z " fill="#4075A1" transform="translate(246,275)"/>
<path d="M0 0 C-0.33 0.99 -0.66 1.98 -1 3 C-1.99 3 -2.98 3 -4 3 C-4 3.66 -4 4.32 -4 5 C-6.31 5 -8.62 5 -11 5 C-11 2 -11 2 -10 0 C-6.35526801 -0.89093449 -3.57257469 -1.23666047 0 0 Z " fill="#086AAA" transform="translate(414,490)"/>
<path d="M0 0 C0.33 0.66 0.66 1.32 1 2 C0.67 2.66 0.34 3.32 0 4 C-0.66 4 -1.32 4 -2 4 C-2.33 4.99 -2.66 5.98 -3 7 C-4.4375 8.6875 -4.4375 8.6875 -6 10 C-6.66 10 -7.32 10 -8 10 C-8 9.01 -8 8.02 -8 7 C-13.28 7 -18.56 7 -24 7 C-24 6.67 -24 6.34 -24 6 C-22.9378125 5.98582031 -21.875625 5.97164062 -20.78125 5.95703125 C-12.49552322 5.72110732 -6.67338535 5.42212559 0 0 Z " fill="#71A4C9" transform="translate(390,250)"/>
<path d="M0 0 C1.98 0.495 1.98 0.495 4 1 C3.67 2.65 3.34 4.3 3 6 C1.68 5.34 0.36 4.68 -1 4 C-0.67 2.68 -0.34 1.36 0 0 Z M-5 5 C-2.03 5.495 -2.03 5.495 1 6 C0.01 6.495 0.01 6.495 -1 7 C-2.13350534 9.01669827 -2.13350534 9.01669827 -3 11 C-4.65 10.67 -6.3 10.34 -8 10 C-7.34 9.67 -6.68 9.34 -6 9 C-5.34786708 6.97536745 -5.34786708 6.97536745 -5 5 Z " fill="#1667A4" transform="translate(396,245)"/>
<path d="M0 0 C3 0 3 0 4.6875 1.3125 C6 3 6 3 6 6 C7.32 6 8.64 6 10 6 C10.33 7.32 10.66 8.64 11 10 C7.37 9.01 3.74 8.02 0 7 C0 6.01 0 5.02 0 4 C-0.33 3.01 -0.66 2.02 -1 1 C-0.67 0.67 -0.34 0.34 0 0 Z " fill="#378EE2" transform="translate(257,113)"/>
<path d="M0 0 C0.66 0 1.32 0 2 0 C2 0.66 2 1.32 2 2 C1.34 2 0.68 2 0 2 C-0.20625 3.010625 -0.4125 4.02125 -0.625 5.0625 C-1.73635512 9.05364395 -3.86427586 11.53224584 -6.66015625 14.51953125 C-8.10124463 15.97866316 -8.10124463 15.97866316 -9 18 C-9.66 18 -10.32 18 -11 18 C-9.4785114 13.60918236 -7.14060361 9.97124031 -4.5 6.1875 C-3.89478516 5.2912793 -3.89478516 5.2912793 -3.27734375 4.37695312 C-2.23960218 2.87856389 -1.12524203 1.43384386 0 0 Z " fill="#82B4EE" transform="translate(28,46)"/>
<path d="M0 0 C1.8125 0.1875 1.8125 0.1875 4 1 C5.625 3.3125 5.625 3.3125 7 6 C7.433125 6.66 7.86625 7.32 8.3125 8 C9 10 9 10 8.125 12.75 C7.75375 13.4925 7.3825 14.235 7 15 C5.9375 13.125 5.9375 13.125 5 11 C5.33 10.34 5.66 9.68 6 9 C5.34 9 4.68 9 4 9 C1.98217268 6.09432866 0.64505596 3.48330216 0 0 Z " fill="#1C64A0" transform="translate(276,289)"/>
<path d="M0 0 C0 0.66 0 1.32 0 2 C-0.7425 2.4125 -1.485 2.825 -2.25 3.25 C-5.22722791 4.88161851 -5.22722791 4.88161851 -7.0625 8.125 C-9 11 -9 11 -11.25 11.875 C-11.8275 11.91625 -12.405 11.9575 -13 12 C-13.33 11.01 -13.66 10.02 -14 9 C-11.6227567 6.37252056 -9.02316819 4.81390092 -6 3 C-5.46375 2.443125 -4.9275 1.88625 -4.375 1.3125 C-3 0 -3 0 0 0 Z M-15 12 C-14.34 12.33 -13.68 12.66 -13 13 C-13.99 13.99 -14.98 14.98 -16 16 C-15.67 14.68 -15.34 13.36 -15 12 Z " fill="#549EF7" transform="translate(43,36)"/>
<path d="M0 0 C1.32 0 2.64 0 4 0 C4 0.66 4 1.32 4 2 C4.9590625 2.1546875 4.9590625 2.1546875 5.9375 2.3125 C6.618125 2.539375 7.29875 2.76625 8 3 C8.33 3.99 8.66 4.98 9 6 C6.69 6 4.38 6 2 6 C2 6.66 2 7.32 2 8 C1.34 8 0.68 8 0 8 C0 5.33333333 0 2.66666667 0 0 Z " fill="#398EE3" transform="translate(233,112)"/>
<path d="M0 0 C1.0625 1.875 1.0625 1.875 2 4 C1.67 4.66 1.34 5.32 1 6 C1.66 6 2.32 6 3 6 C2 8 2 8 0 9 C-0.46651207 11.12576782 -0.46651207 11.12576782 -0.625 13.5625 C-0.69976562 14.38878906 -0.77453125 15.21507812 -0.8515625 16.06640625 C-0.90054687 16.70449219 -0.94953125 17.34257812 -1 18 C-1.33 18 -1.66 18 -2 18 C-2.33 12.39 -2.66 6.78 -3 1 C-2.01 0.67 -1.02 0.34 0 0 Z " fill="#4487BE" transform="translate(397,225)"/>
<path d="M0 0 C3.90829085 0.5647301 5.89920223 2.42131971 8.75 5.0625 C9.54921875 5.79597656 10.3484375 6.52945313 11.171875 7.28515625 C11.77515625 7.85105469 12.3784375 8.41695312 13 9 C10.66785852 10.20628008 8.50357861 11.1654738 6 12 C6 10.68 6 9.36 6 8 C6.66 8 7.32 8 8 8 C8 7.34 8 6.68 8 6 C7.05125 5.7525 6.1025 5.505 5.125 5.25 C2 4 2 4 0.625 1.875 C0.41875 1.25625 0.2125 0.6375 0 0 Z " fill="#3B86CB" transform="translate(448,26)"/>
<path d="M0 0 C2 2 2 2 3 5 C2.5625 7.6875 2.5625 7.6875 2 10 C1.01 9.67 0.02 9.34 -1 9 C-1.45375 9.969375 -1.9075 10.93875 -2.375 11.9375 C-4 15 -4 15 -6 16 C-5.74438677 13.6568787 -5.40729228 11.32156597 -5 9 C-4.34 8.67 -3.68 8.34 -3 8 C-2.67 7.01 -2.34 6.02 -2 5 C-1.34 5 -0.68 5 0 5 C0 3.35 0 1.7 0 0 Z " fill="#569CF6" transform="translate(13,73)"/>
<path d="M0 0 C2 1 2 1 2 1 Z M-2 1 C-1.34 1.33 -0.68 1.66 0 2 C-4.71554252 7.65865103 -4.71554252 7.65865103 -8.90185547 8.28417969 C-13.61141044 8.53734667 -18.29776467 8.30482678 -23 8 C-23 7.67 -23 7.34 -23 7 C-21.87851562 6.92652344 -21.87851562 6.92652344 -20.734375 6.8515625 C-19.74953125 6.77679688 -18.7646875 6.70203125 -17.75 6.625 C-16.77546875 6.55539062 -15.8009375 6.48578125 -14.796875 6.4140625 C-12.06634573 6.00982213 -10.42366635 5.23186348 -8 4 C-6.68 4 -5.36 4 -4 4 C-4 3.34 -4 2.68 -4 2 C-3.34 1.67 -2.68 1.34 -2 1 Z " fill="#1C669B" transform="translate(363,375)"/>
<path d="M0 0 C0.66 0.33 1.32 0.66 2 1 C-4 10 -4 10 -7.125 10.6875 C-8.07375 10.790625 -9.0225 10.89375 -10 11 C-8.55218207 7.55571735 -6.72305391 5.63869038 -3.875 3.25 C-3.15054688 2.63640625 -2.42609375 2.0228125 -1.6796875 1.390625 C-0.84824219 0.70226562 -0.84824219 0.70226562 0 0 Z " fill="#5384AE" transform="translate(228,281)"/>
<path d="M0 0 C3.95826719 0.56546674 6.759709 1.63546332 10 4 C11.375 6 11.375 6 12 8 C11.67 8.99 11.34 9.98 11 11 C9.16365304 9.35742342 7.3308593 7.71117305 5.5 6.0625 C4.97535156 5.59392578 4.45070313 5.12535156 3.91015625 4.64257812 C2.5878256 3.44904592 1.29166061 2.22665821 0 1 C0 0.67 0 0.34 0 0 Z " fill="#5C9CCC" transform="translate(380,215)"/>
<path d="M0 0 C7.48252838 1.37179687 14.05604954 3.92163279 21 7 C21 7.33 21 7.66 21 8 C15.51406937 7.65339436 11.62641903 7.1654446 7 4 C4.69294636 2.92661294 2.35380666 1.96921451 0 1 C0 0.67 0 0.34 0 0 Z " fill="#76AEDB" transform="translate(406,4)"/>
<path d="M0 0 C1.32 0.33 2.64 0.66 4 1 C3.67 3.31 3.34 5.62 3 8 C0.36 8.33 -2.28 8.66 -5 9 C-5 9.66 -5 10.32 -5 11 C-6.32 10.67 -7.64 10.34 -9 10 C-8.071875 9.46375 -7.14375 8.9275 -6.1875 8.375 C-2.75983521 5.82105369 -1.5962315 3.90189922 0 0 Z " fill="#4284B2" transform="translate(364,368)"/>
<path d="M0 0 C0.66 0 1.32 0 2 0 C0.51194289 5.80342274 -2.59097555 10.17590879 -6 15 C-7.27351308 12.45297384 -6.80191925 11.5717055 -6.0625 8.875 C-5.86785156 8.15054687 -5.67320312 7.42609375 -5.47265625 6.6796875 C-5.31667969 6.12539063 -5.16070312 5.57109375 -5 5 C-4.01 5 -3.02 5 -2 5 C-2 4.34 -2 3.68 -2 3 C-1.34 3 -0.68 3 0 3 C0 2.01 0 1.02 0 0 Z " fill="#408BB9" transform="translate(485,429)"/>
<path d="M0 0 C6.83981276 0.51621228 12.63876684 2.48590969 19 5 C18.67 5.66 18.34 6.32 18 7 C11.76559832 5.41039668 5.83712355 3.72399099 0 1 C0 0.67 0 0.34 0 0 Z " fill="#6DACD3" transform="translate(75,489)"/>
<path d="M0 0 C1.28794796 2.57589592 0.99379109 4.3167154 0.875 7.1875 C0.80775274 12.29829191 1.60952738 15.51786383 4 20 C3.34 20.33 2.68 20.66 2 21 C1.67 19.68 1.34 18.36 1 17 C0.34 17 -0.32 17 -1 17 C-1.66 14.69 -2.32 12.38 -3 10 C-2.34 10 -1.68 10 -1 10 C-1.01160156 9.36191406 -1.02320312 8.72382813 -1.03515625 8.06640625 C-1.04417969 7.24011719 -1.05320312 6.41382813 -1.0625 5.5625 C-1.07410156 4.73878906 -1.08570312 3.91507813 -1.09765625 3.06640625 C-1 1 -1 1 0 0 Z " fill="#7BB1E5" transform="translate(105,230)"/>
<path d="M0 0 C-2.6148817 1.74325447 -4.0053433 2.41587957 -6.9375 3.125 C-7.60652344 3.29257812 -8.27554687 3.46015625 -8.96484375 3.6328125 C-11 4 -11 4 -15 4 C-15 3.01 -15 2.02 -15 1 C-9.675665 -1.32086397 -5.56157448 -0.91457003 0 0 Z " fill="#5F9EBF" transform="translate(409,495)"/>
<path d="M0 0 C0 0.66 0 1.32 0 2 C-9.41002278 6.59225513 -9.41002278 6.59225513 -14 6 C-14.33 5.34 -14.66 4.68 -15 4 C-13.06441401 3.32779649 -11.12645628 2.66241923 -9.1875 2 C-8.10855469 1.62875 -7.02960938 1.2575 -5.91796875 0.875 C-3 0 -3 0 0 0 Z " fill="#83B7ED" transform="translate(97,3)"/>
<path d="M0 0 C1.65 0.33 3.3 0.66 5 1 C1.11327187 4.18005028 -2.89952133 7.10554447 -7 10 C-7 8.35 -7 6.7 -7 5 C-4.69 4.01 -2.38 3.02 0 2 C0 1.34 0 0.68 0 0 Z " fill="#5FA1DE" transform="translate(225,123)"/>
<path d="M0 0 C1.32 0.33 2.64 0.66 4 1 C0.04 3.64 -3.92 6.28 -8 9 C-8.33 7.68 -8.66 6.36 -9 5 C-3.375 2 -3.375 2 0 2 C0 1.34 0 0.68 0 0 Z " fill="#478FB8" transform="translate(443,476)"/>
<path d="M0 0 C3.11020134 2.54471018 4.00133026 5.15896252 5 9 C5.125 11.875 5.125 11.875 5 14 C4.01 14.495 4.01 14.495 3 15 C3 13.02 3 11.04 3 9 C2.34 9 1.68 9 1 9 C0 2.25 0 2.25 0 0 Z " fill="#749EBE" transform="translate(284,295)"/>
<path d="M0 0 C-1.59241408 4.29951803 -4.35540725 6.39671947 -8 9 C-8.99 8.67 -9.98 8.34 -11 8 C-10.67 6.68 -10.34 5.36 -10 4 C-9.4225 3.896875 -8.845 3.79375 -8.25 3.6875 C-5.0961478 2.72382294 -3.27642941 0 0 0 Z " fill="#5094D6" transform="translate(178,165)"/>
<path d="M0 0 C5.31027254 1.46032495 9.46330032 3.98320986 14 7 C10.90279155 7.87840996 9.09354597 7.99435406 6 7 C5.67 5.68 5.34 4.36 5 3 C3.35 2.67 1.7 2.34 0 2 C0 1.34 0 0.68 0 0 Z " fill="#67A1D6" transform="translate(427,12)"/>
<path d="M0 0 C1.33841672 0.31229724 2.67139075 0.64830932 4 1 C4.99 1 5.98 1 7 1 C4.03 3.64 1.06 6.28 -2 9 C-2.66 8.67 -3.32 8.34 -4 8 C-3.67 7.01 -3.34 6.02 -3 5 C-2.01 5 -1.02 5 0 5 C-0.2784375 4.0409375 -0.2784375 4.0409375 -0.5625 3.0625 C-0.706875 2.381875 -0.85125 1.70125 -1 1 C-0.67 0.67 -0.34 0.34 0 0 Z " fill="#84BAE8" transform="translate(141,192)"/>
<path d="M0 0 C2.31 0.33 4.62 0.66 7 1 C7 1.66 7 2.32 7 3 C7.66 3 8.32 3 9 3 C9.33 4.65 9.66 6.3 10 8 C2.42857143 4 2.42857143 4 0 0 Z " fill="#6AA4D4" transform="translate(314,160)"/>
<path d="M0 0 C2.97 0.495 2.97 0.495 6 1 C6 1.66 6 2.32 6 3 C6.99 3.639375 7.98 4.27875 9 4.9375 C10.485 5.9584375 10.485 5.9584375 12 7 C12 7.99 12 8.98 12 10 C7.72754004 7.2534186 3.81413925 4.36007505 0 1 C0 0.67 0 0.34 0 0 Z " fill="#599BD3" transform="translate(281,132)"/>
<path d="M0 0 C4.875 4.625 4.875 4.625 6 8 C1.25 9.125 1.25 9.125 -1 8 C-0.67 7.01 -0.34 6.02 0 5 C-0.33 4.01 -0.66 3.02 -1 2 C-0.67 1.34 -0.34 0.68 0 0 Z " fill="#388CE0" transform="translate(105,247)"/>
<path d="M0 0 C4.37653129 0.47620289 6.06538005 1.66899889 8.8125 5.0625 C9.41707031 5.79597656 10.02164062 6.52945313 10.64453125 7.28515625 C11.09183594 7.85105469 11.53914063 8.41695312 12 9 C8.0557333 9 7.17603973 7.68625863 4.3125 5.0625 C3.50425781 4.33160156 2.69601562 3.60070312 1.86328125 2.84765625 C1.24839844 2.23792969 0.63351562 1.62820312 0 1 C0 0.67 0 0.34 0 0 Z " fill="#8BBCE2" transform="translate(296,145)"/>
<path d="M0 0 C0.33 0.99 0.66 1.98 1 3 C5.29 3.66 9.58 4.32 14 5 C9.85583353 6.03604162 6.97857647 5.91488137 2.75 5.5625 C1.48671875 5.46066406 0.2234375 5.35882813 -1.078125 5.25390625 C-2.04234375 5.17011719 -3.0065625 5.08632812 -4 5 C-4 4.34 -4 3.68 -4 3 C-3.34 3 -2.68 3 -2 3 C-2 2.34 -2 1.68 -2 1 C-1.34 0.67 -0.68 0.34 0 0 Z " fill="#448CD4" transform="translate(247,113)"/>
<path d="M0 0 C3.63 0.33 7.26 0.66 11 1 C11 1.99 11 2.98 11 4 C3.57142857 4.28571429 3.57142857 4.28571429 0 2 C0 1.34 0 0.68 0 0 Z " fill="#3289DC" transform="translate(416,11)"/>
<path d="M0 0 C-2.38125464 2.38125464 -4.33857567 3.00186241 -7.5 4.125 C-8.4796875 4.47820312 -9.459375 4.83140625 -10.46875 5.1953125 C-13 6 -13 6 -15 6 C-15 5.34 -15 4.68 -15 4 C-14.01 4 -13.02 4 -12 4 C-12 3.34 -12 2.68 -12 2 C-7.8803623 0.70756464 -4.33168317 -0.26252625 0 0 Z " fill="#5B9EC5" transform="translate(425,489)"/>
<path d="M0 0 C1.98 0 3.96 0 6 0 C5.625 2.4375 5.625 2.4375 5 5 C4.01 5.495 4.01 5.495 3 6 C2.01 5.67 1.02 5.34 0 5 C0 3.35 0 1.7 0 0 Z " fill="#4999E6" transform="translate(114,212)"/>
<path d="M0 0 C1.32 0.33 2.64 0.66 4 1 C-1.445 5.455 -1.445 5.455 -7 10 C-7.33 9.34 -7.66 8.68 -8 8 C-7.34 8 -6.68 8 -6 8 C-5.67 6.68 -5.34 5.36 -5 4 C-4.01 4 -3.02 4 -2 4 C-2 3.34 -2 2.68 -2 2 C-1.34 1.34 -0.68 0.68 0 0 Z " fill="#8EBEE8" transform="translate(156,182)"/>
<path d="M0 0 C1.2380014 3.57644848 0.74926071 6.33694766 0 10 C-0.99 10 -1.98 10 -3 10 C-3.6875 8.3125 -3.6875 8.3125 -4 6 C-2.85213059 3.75643706 -1.7904233 1.7904233 0 0 Z " fill="#519BFC" transform="translate(6,100)"/>
<path d="M0 0 C0 0.66 0 1.32 0 2 C-0.66 2 -1.32 2 -2 2 C-2 2.66 -2 3.32 -2 4 C-5.465 5.485 -5.465 5.485 -9 7 C-9.66 6.34 -10.32 5.68 -11 5 C-9.54462432 4.16151196 -8.08559627 3.32936066 -6.625 2.5 C-5.81289062 2.0359375 -5.00078125 1.571875 -4.1640625 1.09375 C-2 0 -2 0 0 0 Z " fill="#7EB1EF" transform="translate(73,12)"/>
<path d="M0 0 C-0.99 1.32 -1.98 2.64 -3 4 C-5.31 3.67 -7.62 3.34 -10 3 C-9.34 2.67 -8.68 2.34 -8 2 C-8 1.34 -8 0.68 -8 0 C-4.94736336 -0.98120464 -3.05263664 -0.98120464 0 0 Z " fill="#539DF9" transform="translate(81,12)"/>
<path d="M0 0 C1.32 0 2.64 0 4 0 C2.49776416 4.20626034 -0.28550034 5.73900021 -4 8 C-4 6.68 -4 5.36 -4 4 C-3.34 4 -2.68 4 -2 4 C-2 3.34 -2 2.68 -2 2 C-1.34 2 -0.68 2 0 2 C0 1.34 0 0.68 0 0 Z " fill="#79ADDF" transform="translate(113,217)"/>
<path d="M0 0 C1.4540625 0.0309375 1.4540625 0.0309375 2.9375 0.0625 C0.54792731 3.30549151 -1.2672869 5.57152342 -5.0625 7.0625 C-4.02286585 0.0820993 -4.02286585 0.0820993 0 0 Z " fill="#7BB4E4" transform="translate(183.0625,159.9375)"/>
<path d="M0 0 C1.2065625 0.0309375 1.2065625 0.0309375 2.4375 0.0625 C2.1075 1.0525 1.7775 2.0425 1.4375 3.0625 C0.7775 3.0625 0.1175 3.0625 -0.5625 3.0625 C-0.8925 4.0525 -1.2225 5.0425 -1.5625 6.0625 C-2.8825 6.0625 -4.2025 6.0625 -5.5625 6.0625 C-3.26136364 0.07954545 -3.26136364 0.07954545 0 0 Z " fill="#579DF8" transform="translate(64.5625,17.9375)"/>
<path d="M0 0 C1.32 0 2.64 0 4 0 C4.33 1.65 4.66 3.3 5 5 C5.99 5.33 6.98 5.66 8 6 C8.33 7.65 8.66 9.3 9 11 C5.36440339 7.56638098 2.63886654 4.2026393 0 0 Z " fill="#66A3D4" transform="translate(22,445)"/>
<path d="M0 0 C1.32 0.33 2.64 0.66 4 1 C4 2.32 4 3.64 4 5 C3.34 5 2.68 5 2 5 C2 5.66 2 6.32 2 7 C0.02 7.99 0.02 7.99 -2 9 C-1.855625 8.443125 -1.71125 7.88625 -1.5625 7.3125 C-0.97230872 4.88615805 -0.476571 2.45093655 0 0 Z " fill="#4190DC" transform="translate(146,185)"/>
<path d="M0 0 C3.82524236 1.450954 5.19090966 3.38181932 7 7 C7 7.66 7 8.32 7 9 C5.68 8.67 4.36 8.34 3 8 C3 7.01 3 6.02 3 5 C2.34 5 1.68 5 1 5 C0.67 3.35 0.34 1.7 0 0 Z " fill="#5195CE" transform="translate(476,55)"/>
<path d="M0 0 C-3.47547073 1.94566951 -5.12506344 2.07637127 -9 1 C-9 1.66 -9 2.32 -9 3 C-10.32 3 -11.64 3 -13 3 C-13.33 2.01 -13.66 1.02 -14 0 C-9.20699867 -1.39151652 -4.84864218 -0.68662689 0 0 Z " fill="#66A6E0" transform="translate(398,1)"/>
<path d="M0 0 C2.90802461 2.21928194 4.95312762 3.92969143 7 7 C7 7.99 7 8.98 7 10 C6.34 10 5.68 10 5 10 C1.98295115 6.8000997 0.50109958 4.38462134 0 0 Z " fill="#2D87DB" transform="translate(25,443)"/>
<path d="M0 0 C2.10827055 3.16240582 2.33817465 4.50657469 2.625 8.1875 C2.69976562 9.08855469 2.77453125 9.98960937 2.8515625 10.91796875 C2.90054687 11.60503906 2.94953125 12.29210937 3 13 C0.68468695 10.68468695 -0.07417343 9.13356684 -1 6 C-0.625 2.6875 -0.625 2.6875 0 0 Z " fill="#72B0DE" transform="translate(6,407)"/>
<path d="M0 0 C2.96404505 2.80804268 5.44499019 5.18315774 7 9 C6.34 9.66 5.68 10.32 5 11 C4.01 8.69 3.02 6.38 2 4 C0.35 4 -1.3 4 -3 4 C-3 3.34 -3 2.68 -3 2 C-2.01 2 -1.02 2 0 2 C0 1.34 0 0.68 0 0 Z " fill="#588DB4" transform="translate(277,286)"/>
<path d="M0 0 C2 2 2 2 2 6 C1.38125 6.144375 0.7625 6.28875 0.125 6.4375 C-2.03258322 6.93152225 -2.03258322 6.93152225 -4 8 C-3.67 6.35 -3.34 4.7 -3 3 C-2.01 2.67 -1.02 2.34 0 2 C0 1.34 0 0.68 0 0 Z " fill="#226299" transform="translate(221,289)"/>
<path d="M0 0 C1 2 1 2 0.875 4.5 C0 7 0 7 -2.5625 8.3125 C-3.7690625 8.6528125 -3.7690625 8.6528125 -5 9 C-4.37315423 6.07471973 -3.51695295 3.58774327 -2 1 C-1.34 0.67 -0.68 0.34 0 0 Z " fill="#448FD9" transform="translate(205,138)"/>
<path d="M0 0 C1.32 0 2.64 0 4 0 C4 1.32 4 2.64 4 4 C1.03 4 -1.94 4 -5 4 C-4.34 3.34 -3.68 2.68 -3 2 C-2.01 2 -1.02 2 0 2 C0 1.34 0 0.68 0 0 Z " fill="#589AEF" transform="translate(97,3)"/>
<path d="M0 0 C1.32 0 2.64 0 4 0 C4 2.31 4 4.62 4 7 C3.34 7 2.68 7 2 7 C2 6.34 2 5.68 2 5 C1.34 5 0.68 5 0 5 C0 3.35 0 1.7 0 0 Z " fill="#056BAE" transform="translate(488,409)"/>
<path d="M0 0 C0.391875 0.53625 0.78375 1.0725 1.1875 1.625 C3.3755388 4.49208532 5.67879296 7.23964568 8 10 C4.98197607 9.67372714 3.40308719 9.38918764 1.1875 7.25 C-0.19608294 4.62847443 -0.24360427 2.92325122 0 0 Z " fill="#629DCF" transform="translate(135,368)"/>
<path d="M0 0 C0.66 0 1.32 0 2 0 C2 1.65 2 3.3 2 5 C1.34 5 0.68 5 0 5 C-0.33 6.32 -0.66 7.64 -1 9 C-1.66 9 -2.32 9 -3 9 C-2.01 6.03 -1.02 3.06 0 0 Z " fill="#81B5F0" transform="translate(11,73)"/>
<path d="M0 0 C1 3 1 3 0 6 C-1.65 6.33 -3.3 6.66 -5 7 C-4.1875 4.0625 -4.1875 4.0625 -3 1 C-2.01 0.67 -1.02 0.34 0 0 Z " fill="#0C6FA4" transform="translate(478,439)"/>
<path d="M0 0 C0.33 0 0.66 0 1 0 C1.33 2.64 1.66 5.28 2 8 C2.66 8 3.32 8 4 8 C3.34 9.32 2.68 10.64 2 12 C1.01 11.67 0.02 11.34 -1 11 C-0.67 7.37 -0.34 3.74 0 0 Z " fill="#1F6298" transform="translate(396,232)"/>
<path d="M0 0 C-0.33 1.32 -0.66 2.64 -1 4 C-2.32 4 -3.64 4 -5 4 C-5 3.34 -5 2.68 -5 2 C-5.66 2 -6.32 2 -7 2 C-7 1.34 -7 0.68 -7 0 C-2.25 -1.125 -2.25 -1.125 0 0 Z " fill="#388FE8" transform="translate(217,130)"/>
<path d="M0 0 C1.66905241 3.33810482 2.8741386 6.46157845 4 10 C3.01 10.33 2.02 10.66 1 11 C1 10.34 1 9.68 1 9 C0.34 9 -0.32 9 -1 9 C-0.67 6.03 -0.34 3.06 0 0 Z " fill="#71ABF1" transform="translate(1,102)"/>
<path d="M0 0 C0.99 0.33 1.98 0.66 3 1 C3 1.99 3 2.98 3 4 C3.66 4 4.32 4 5 4 C5.33 5.32 5.66 6.64 6 8 C5.01 8 4.02 8 3 8 C0 2.25 0 2.25 0 0 Z " fill="#6DA6DA" transform="translate(12,427)"/>
<path d="M0 0 C4.2742558 1.5830577 6.26531794 4.50568404 9 8 C8.67 8.66 8.34 9.32 8 10 C6.84481082 9.09515208 5.70114594 8.1755794 4.5625 7.25 C3.60537109 6.48429687 3.60537109 6.48429687 2.62890625 5.703125 C0.81189446 3.80332371 0.39576803 2.56413092 0 0 Z " fill="#196FB6" transform="translate(184,420)"/>
<path d="M0 0 C1.65 0 3.3 0 5 0 C5 0.66 5 1.32 5 2 C3.37373596 3.38232443 1.7074998 4.71937515 0 6 C-1.125 2.25 -1.125 2.25 0 0 Z " fill="#679EDA" transform="translate(206,138)"/>
<path d="M0 0 C3.3 0 6.6 0 10 0 C10.33 1.32 10.66 2.64 11 4 C7.37 3.01 3.74 2.02 0 1 C0 0.67 0 0.34 0 0 Z " fill="#8EC3E8" transform="translate(257,119)"/>
<path d="M0 0 C1.45606519 4.52092968 0.27032841 7.51648796 -1 12 C-1.66 12 -2.32 12 -3 12 C-2.49202991 7.6822542 -1.80317221 3.96697886 0 0 Z " fill="#A1CBEE" transform="translate(7,82)"/>
<path d="M0 0 C0.99 0.66 1.98 1.32 3 2 C3 2.99 3 3.98 3 5 C3.99 5.66 4.98 6.32 6 7 C5.01 7.495 5.01 7.495 4 8 C1.875 7.0625 1.875 7.0625 0 6 C0 5.34 0 4.68 0 4 C-0.66 4 -1.32 4 -2 4 C-2 3.34 -2 2.68 -2 2 C-1.34 2 -0.68 2 0 2 C0 1.34 0 0.68 0 0 Z " fill="#308FDE" transform="translate(447,24)"/>
<path d="M0 0 C2.4375 0.8125 2.4375 0.8125 5 2 C5.33 2.99 5.66 3.98 6 5 C8.00016466 6.20882096 8.00016466 6.20882096 10 7 C6.433255 7 5.89456323 6.36308045 3.3125 4.0625 C2.68988281 3.51722656 2.06726562 2.97195313 1.42578125 2.41015625 C0.95527344 1.94480469 0.48476563 1.47945313 0 1 C0 0.67 0 0.34 0 0 Z " fill="#4D8EC4" transform="translate(39,464)"/>
<path d="M0 0 C0.99 0.66 1.98 1.32 3 2 C2.34 3.65 1.68 5.3 1 7 C-0.32 6.67 -1.64 6.34 -3 6 C-2.01 4.02 -1.02 2.04 0 0 Z " fill="#467FAC" transform="translate(394,243)"/>
<path d="M0 0 C1.33841672 0.31229724 2.67139075 0.64830932 4 1 C4.99 1 5.98 1 7 1 C5.71034824 2.37562854 4.37310707 3.70766393 3 5 C2.34 5 1.68 5 1 5 C1 4.01 1 3.02 1 2 C0.34 1.67 -0.32 1.34 -1 1 C-0.67 0.67 -0.34 0.34 0 0 Z " fill="#79B4E9" transform="translate(197,145)"/>
<path d="M0 0 C0.66 0 1.32 0 2 0 C2 3 2 3 -0.375 5.5625 C-1.24125 6.366875 -2.1075 7.17125 -3 8 C-3.66 8.66 -4.32 9.32 -5 10 C-5 8.68 -5 7.36 -5 6 C-4.34 6 -3.68 6 -3 6 C-2.690625 5.195625 -2.38125 4.39125 -2.0625 3.5625 C-1 1 -1 1 0 0 Z " fill="#569EF7" transform="translate(22,58)"/>
<path d="M0 0 C4.24822374 0.47202486 6.19989709 2.96655518 9 6 C6.07606119 5.37344168 3.55170871 4.5838192 1 3 C0.67 2.01 0.34 1.02 0 0 Z " fill="#498EC8" transform="translate(448,26)"/>
<path d="M0 0 C1.67542976 0.28604898 3.34385343 0.61781233 5 1 C5.33 1.99 5.66 2.98 6 4 C3.625 4.1875 3.625 4.1875 1 4 C0.34 3.01 -0.32 2.02 -1 1 C-0.67 0.67 -0.34 0.34 0 0 Z " fill="#036CB2" transform="translate(425,481)"/>
<path d="M0 0 C4.21912747 0.4794463 6.79663178 1.16625119 10 4 C7 5 7 5 5.17578125 4.22265625 C3.45052083 3.1484375 1.72526042 2.07421875 0 1 C0 0.67 0 0.34 0 0 Z " fill="#62A5D5" transform="translate(57,479)"/>
<path d="M0 0 C0.99 0.33 1.98 0.66 3 1 C3 1.66 3 2.32 3 3 C3.66 3 4.32 3 5 3 C5 4.65 5 6.3 5 8 C2.20127563 5.47211993 0.54226981 3.79588866 0 0 Z " fill="#6AA4D7" transform="translate(17,436)"/>
<path d="M0 0 C0 1.65 0 3.3 0 5 C-0.99 5 -1.98 5 -3 5 C-3 4.01 -3 3.02 -3 2 C-3.99 2.33 -4.98 2.66 -6 3 C-6 2.34 -6 1.68 -6 1 C-3 0 -3 0 0 0 Z " fill="#1571AF" transform="translate(488,424)"/>
<path d="M0 0 C2.475 0.99 2.475 0.99 5 2 C5 2.66 5 3.32 5 4 C4.01 4 3.02 4 2 4 C2 4.66 2 5.32 2 6 C1.34 6 0.68 6 0 6 C-0.38218767 4.34385343 -0.71395102 2.67542976 -1 1 C-0.67 0.67 -0.34 0.34 0 0 Z " fill="#20639A" transform="translate(272,284)"/>
<path d="M0 0 C-0.33 0.66 -0.66 1.32 -1 2 C-3.06640625 2.4140625 -3.06640625 2.4140625 -5.5625 2.625 C-6.38878906 2.69976562 -7.21507812 2.77453125 -8.06640625 2.8515625 C-9.02353516 2.92503906 -9.02353516 2.92503906 -10 3 C-4.37755102 -1.45918367 -4.37755102 -1.45918367 0 0 Z " fill="#5B86AC" transform="translate(240,278)"/>
<path d="M0 0 C-2.98646769 1.99097846 -5.59687262 2.94124926 -9 4 C-9 3.01 -9 2.02 -9 1 C-6.04335481 -0.4783226 -3.25770263 -0.06032783 0 0 Z " fill="#8BC0E4" transform="translate(239,120)"/>
<path d="M0 0 C1.32 0.33 2.64 0.66 4 1 C3.01 2.32 2.02 3.64 1 5 C0.01 4.67 -0.98 4.34 -2 4 C-1.34 2.68 -0.68 1.36 0 0 Z " fill="#23629B" transform="translate(230,281)"/>
<path d="M0 0 C-1.32 1.32 -2.64 2.64 -4 4 C-5.32 3.34 -6.64 2.68 -8 2 C-5.14066998 -0.85933002 -3.8625627 -1.2875209 0 0 Z " fill="#4C97D2" transform="translate(384,211)"/>
<path d="M0 0 C1.32 0.66 2.64 1.32 4 2 C2.35 3.32 0.7 4.64 -1 6 C-1.33 4.68 -1.66 3.36 -2 2 C-1.34 2 -0.68 2 0 2 C0 1.34 0 0.68 0 0 Z " fill="#71AEE1" transform="translate(133,200)"/>
<path d="M0 0 C-1.28965176 1.37562854 -2.62689293 2.70766393 -4 4 C-4.66 4 -5.32 4 -6 4 C-6 2.68 -6 1.36 -6 0 C-3.50907189 -1.24546405 -2.58919267 -0.7767578 0 0 Z " fill="#84B7E1" transform="translate(192,156)"/>
<path d="M0 0 C3 1.5 3 1.5 6 3 C5.67 3.66 5.34 4.32 5 5 C2.03 4.505 2.03 4.505 -1 4 C-0.67 2.68 -0.34 1.36 0 0 Z " fill="#338BDF" transform="translate(282,128)"/>
<path d="M0 0 C2.64 0 5.28 0 8 0 C7.67 1.32 7.34 2.64 7 4 C4.69 3.01 2.38 2.02 0 1 C0 0.67 0 0.34 0 0 Z " fill="#6BA8D9" transform="translate(268,123)"/>
<path d="M0 0 C2.72869407 0.03287583 5.2966618 0.56397771 8 1 C4.1496895 3.56687367 2.41430237 2.83288724 -2 2 C-1.34 1.34 -0.68 0.68 0 0 Z " fill="#77B0DB" transform="translate(398,2)"/>
<path d="M0 0 C0 0.99 0 1.98 0 3 C-1.65 3 -3.3 3 -5 3 C-5 3.66 -5 4.32 -5 5 C-5.99 4.67 -6.98 4.34 -8 4 C-2.7826087 0 -2.7826087 0 0 0 Z " fill="#0E6DA5" transform="translate(448,473)"/>
<path d="M0 0 C2.475 0.495 2.475 0.495 5 1 C5.33 2.65 5.66 4.3 6 6 C3.37812506 4.95125002 2.20628639 4.35068687 0.75 1.875 C0.5025 1.25625 0.255 0.6375 0 0 Z " fill="#5886B8" transform="translate(113,254)"/>
<path d="M0 0 C2.86697492 1.28519565 4.97607712 2.57129254 7 5 C7 5.66 7 6.32 7 7 C3.63983107 5.87994369 2.30935087 4.62788203 0 2 C0 1.34 0 0.68 0 0 Z " fill="#1771B8" transform="translate(400,233)"/>
<path d="M0 0 C2.475 0.495 2.475 0.495 5 1 C5.33 2.32 5.66 3.64 6 5 C2.83884224 3.63016497 2.0072908 3.0109362 0 0 Z " fill="#80B5E0" transform="translate(308,155)"/>
<path d="M0 0 C0.33 0.66 0.66 1.32 1 2 C0.0625 4.125 0.0625 4.125 -1 6 C-1.66 5.01 -2.32 4.02 -3 3 C-2.01 2.01 -1.02 1.02 0 0 Z M-4 6 C-3.34 6.33 -2.68 6.66 -2 7 C-2.99 7.99 -3.98 8.98 -5 10 C-4.67 8.68 -4.34 7.36 -4 6 Z " fill="#669EEC" transform="translate(32,42)"/>
</svg>
