<!DOCTYPE svg PUBLIC "-//W3C//DTD SVG 1.1//EN" "http://www.w3.org/Graphics/SVG/1.1/DTD/svg11.dtd">
<!-- Uploaded to: SVG Repo, www.svgrepo.com, Transformed by: SVG Repo Mixer Tools -->
<svg fill="#2AB5C9" height="800px" width="800px" version="1.1" id="Layer_1" xmlns="http://www.w3.org/2000/svg" xmlns:xlink="http://www.w3.org/1999/xlink" viewBox="0 0 512 512" xml:space="preserve">
<g id="SVGRepo_bgCarrier" stroke-width="0"/>
<g id="SVGRepo_tracerCarrier" stroke-linecap="round" stroke-linejoin="round"/>
<g id="SVGRepo_iconCarrier"> <g> <g> <path d="M472.639,72.19c-1.46-27.28-23.545-48.647-50.277-48.647c-14.187,0-26.025,7.503-34.1,14.674 c-7.968-7.203-19.769-14.674-34.436-14.674c-26.732,0-48.815,21.367-50.274,48.648c-0.876,16.416,5.413,28.011,10.219,35.307 c6.457,9.796,22.035,24.272,34.46,34.554c28.177,23.315,36.116,23.315,39.932,23.315c3.859,0,11.889,0,39.929-23.279 c12.332-10.239,27.829-24.704,34.339-34.604C467.234,100.177,473.519,88.57,472.639,72.19z M439.369,92.319 c-7.808,11.874-39.704,38.81-51.164,44.757c-11.43-6.017-43.846-33.326-51.385-44.766c-4.404-6.682-6.057-12.085-5.706-18.647 c0.664-12.418,10.853-22.52,22.713-22.52c10.194,0,19.925,11.043,22.775,15.24c2.52,3.798,6.754,6.105,11.311,6.167 c4.524,0.029,8.852-2.131,11.474-5.857c2.312-3.284,12.985-15.55,22.978-15.55c11.86,0,22.05,10.102,22.714,22.521 C445.429,80.211,443.776,85.616,439.369,92.319z"/> </g> </g> <g> <g> <path d="M458.637,191.745H318.63c0.232-1.217,0.42-2.448,0.545-3.696c1.122-11.138-2.16-22.049-9.242-30.72 c-7.082-8.671-17.118-14.064-28.255-15.186c-7.434-0.749-14.916,0.541-21.631,3.616c-1.361-0.907-2.77-1.751-4.222-2.525 c-6.334-3.383-13.217-5.338-20.222-5.817c-3.354-18.24-14.813-34.34-31.665-43.339c-19.724-10.531-42.904-9.562-61.287,1.71 c-7.429-5.776-16.632-9.003-26.381-9.003c-23.78,0.001-43.127,19.348-43.127,43.129c0,1.283,0.057,2.557,0.168,3.82 c-12.59,5.487-23.025,15.041-29.674,27.491c-5.466,10.236-7.877,21.815-7.116,33.262C15.327,201.555,0,221.568,0,245.108 c0,23.847,15.727,44.087,37.353,50.905l16.249,97.495c4.448,26.688,20.92,48.593,43.349,60.594l-10.795,10.795 c-5.389,5.389-5.389,14.128,0,19.518c2.695,2.694,6.227,4.042,9.758,4.042s7.065-1.348,9.758-4.042l20.97-20.97 c3.369,0.404,6.788,0.631,10.261,0.631h238.195c3.471,0,6.892-0.226,10.261-0.631l20.97,20.97 c2.695,2.694,6.227,4.042,9.758,4.042c3.532,0,7.064-1.348,9.758-4.042c5.389-5.389,5.391-14.128,0-19.518l-10.795-10.795 c22.429-12.001,38.901-33.906,43.349-60.594l16.249-97.495C496.273,289.197,512,268.957,512,245.107 C512,215.684,488.062,191.745,458.637,191.745z M67.983,174.224c5.007-9.375,13.907-15.785,24.417-17.586 c4.31-0.738,8.014-3.476,9.986-7.379c1.972-3.901,1.978-8.508,0.017-12.415c-1.101-2.196-1.659-4.527-1.659-6.931 c0-8.562,6.965-15.527,15.526-15.527c5.367,0,10.286,2.742,13.156,7.335c2.221,3.552,5.934,5.904,10.095,6.391 c4.166,0.493,8.318-0.941,11.3-3.882c10.706-10.564,26.827-12.902,40.114-5.803c11.987,6.401,19.043,19.3,17.977,32.862 c-0.352,4.47,1.492,8.832,4.941,11.699c3.449,2.866,8.076,3.872,12.407,2.71c5.585-1.506,11.468-0.836,16.563,1.887 c2.227,1.19,4.229,2.732,5.947,4.586c5.091,5.491,13.632,5.922,19.25,0.969c3.037-2.679,6.902-3.935,10.887-3.533 c3.803,0.384,7.23,2.225,9.648,5.186c2.418,2.962,3.538,6.686,3.156,10.491c-0.236,2.345-1.031,4.55-2.302,6.464H63.97 C63.702,185.717,65.053,179.711,67.983,174.224z M431.174,388.973c-4.589,27.524-28.172,47.503-56.077,47.503H136.903 c-27.905,0-51.488-19.979-56.077-47.503l-6.884-41.308h179.012c7.622,0,13.801-6.18,13.801-13.801 c0-7.621-6.179-13.801-13.801-13.801H69.342l-3.599-21.594h380.514L431.174,388.973z M458.637,270.868H53.363 c-14.205,0-25.761-11.557-25.761-25.761c0-14.166,11.497-25.694,25.65-25.755l0.195-0.006h241.89h163.302 c14.205,0,25.761,11.557,25.761,25.761C484.399,259.313,472.842,270.868,458.637,270.868z"/> </g> </g> <g> <g> <path d="M303.888,324.105c-0.635-0.635-1.339-1.214-2.098-1.711c-0.745-0.495-1.546-0.925-2.374-1.27 c-0.842-0.345-1.711-0.606-2.581-0.785c-1.78-0.36-3.616-0.36-5.396,0c-0.883,0.179-1.753,0.44-2.581,0.785 c-0.842,0.345-1.642,0.774-2.388,1.27c-0.759,0.497-1.463,1.076-2.098,1.711c-2.567,2.567-4.044,6.127-4.044,9.757 c0,3.63,1.477,7.19,4.044,9.756c0.635,0.65,1.339,1.216,2.098,1.725c0.745,0.497,1.546,0.926,2.388,1.271 c0.828,0.345,1.697,0.606,2.581,0.785c0.883,0.166,1.794,0.262,2.691,0.262s1.808-0.097,2.691-0.262 c0.883-0.179,1.753-0.44,2.595-0.785c0.828-0.345,1.628-0.774,2.374-1.271c0.759-0.509,1.463-1.075,2.098-1.725 c2.567-2.565,4.044-6.126,4.044-9.756C307.931,330.232,306.455,326.672,303.888,324.105z"/> </g> </g> </g>
</svg>