<!DOCTYPE svg PUBLIC "-//W3C//DTD SVG 1.1//EN" "http://www.w3.org/Graphics/SVG/1.1/DTD/svg11.dtd">
<!-- Uploaded to: SVG Repo, www.svgrepo.com, Transformed by: SVG Repo Mixer Tools -->
<svg fill="#2AB5C9" height="800px" width="800px" version="1.1" id="Layer_1" xmlns="http://www.w3.org/2000/svg" xmlns:xlink="http://www.w3.org/1999/xlink" viewBox="0 0 512.001 512.001" xml:space="preserve">
<g id="SVGRepo_bgCarrier" stroke-width="0"/>
<g id="SVGRepo_tracerCarrier" stroke-linecap="round" stroke-linejoin="round"/>
<g id="SVGRepo_iconCarrier"> <path d="M7.941,375.246c1.361,0.024,2.73-0.289,3.953-0.993L36.7,359.954c13.053-7.524,28.639-7.525,41.692,0 c3.793,2.186,8.644,0.884,10.832-2.911c2.187-3.795,0.884-8.645-2.911-10.832c-18.013-10.382-39.522-10.382-57.535,0L3.972,360.51 c-3.794,2.187-5.098,7.038-2.911,10.832C2.448,373.748,5.176,375.196,7.941,375.246z"/> <path d="M376.073,359.954c18.013,10.382,39.522,10.385,57.535,0c13.054-7.524,28.639-7.524,41.692,0 c0,0,24.801,14.296,24.807,14.298c3.678,2.12,8.652,0.871,10.833-2.911c2.187-3.795,0.884-8.645-2.911-10.832l-24.807-14.298 c-18.013-10.382-39.521-10.382-57.535,0c-13.054,7.524-28.639,7.524-41.692,0c-18.012-10.382-39.521-10.382-57.535,0 c-13.054,7.524-28.639,7.524-41.692,0c-18.012-10.382-39.521-10.382-57.535,0c-13.054,7.527-28.639,7.525-41.691,0 c-18.013-10.382-39.522-10.382-57.535,0c-3.795,2.187-5.098,7.036-2.911,10.832c2.187,3.795,7.038,5.097,10.832,2.911 c13.054-7.523,28.64-7.525,41.692,0c18.013,10.383,39.521,10.385,57.535,0c13.054-7.523,28.639-7.525,41.692,0 c18.013,10.382,39.522,10.385,57.535,0C347.434,352.432,363.019,352.429,376.073,359.954z"/> <path d="M284.766,388.595c-18.012-10.382-39.521-10.382-57.535,0c-13.051,7.524-28.638,7.524-41.691,0 c-18.013-10.382-39.522-10.382-57.535,0c-13.054,7.523-28.64,7.523-41.692,0c-18.012-10.382-39.521-10.382-57.535,0L3.972,402.894 c-3.794,2.187-5.098,7.038-2.911,10.832c2.113,3.665,7.058,5.085,10.833,2.911L36.7,402.339c13.054-7.524,28.64-7.523,41.692,0 c18.012,10.382,39.522,10.382,57.535,0c13.053-7.524,28.639-7.525,41.692,0c18.013,10.382,39.521,10.382,57.534,0 c13.053-7.524,28.639-7.525,41.692,0c3.792,2.185,8.644,0.885,10.832-2.911C289.865,395.632,288.561,390.782,284.766,388.595z"/> <path d="M508.028,402.894l-24.807-14.298c-18.012-10.38-39.521-10.381-57.535,0c-13.054,7.523-28.64,7.523-41.692,0 c-18.013-10.382-39.522-10.382-57.535,0c-3.795,2.187-5.098,7.036-2.911,10.832c2.187,3.794,7.035,5.096,10.832,2.911 c13.053-7.524,28.639-7.525,41.692,0c18.013,10.382,39.522,10.382,57.535,0c13.054-7.524,28.64-7.524,41.691,0 c0,0,24.804,14.297,24.807,14.298c3.679,2.12,8.65,0.875,10.833-2.911C513.126,409.931,511.822,405.082,508.028,402.894z"/> <path d="M11.893,331.87L36.7,317.572c13.053-7.524,28.639-7.525,41.692,0c18.012,10.382,39.522,10.382,57.535,0 c5.218-3.007,10.84-4.791,16.543-5.394c0.14-0.005,0.277,0.004,0.418-0.008c14.341-1.343,25.628,7.72,38.867,11.258 c14.611,3.904,30.317,1.686,43.399-5.854c8.719-5.026,19.283-6.957,29.109-4.542c10.081,2.478,18.816,8.672,28.969,10.948 c13.816,3.096,28.423,0.789,40.728-6.174c13.638-7.691,29.731-6.974,43.357,0.456c17.753,9.681,38.691,9.456,56.292-0.689 c13.054-7.524,28.64-7.524,41.691,0l24.808,14.299c3.75,2.16,8.67,0.839,10.832-2.911c2.187-3.795,0.884-8.645-2.911-10.832 l-24.807-14.298c-18.012-10.38-39.521-10.381-57.535,0c-7.287,4.2-15.364,6.051-23.348,5.561c2.593-2.363,5.034-4.907,7.309-7.622 c9.231-11.016,15.132-24.05,17.322-37.888c2.503-15.817,0.031-32.392-6.993-46.78c-0.014-0.027-0.026-0.054-0.04-0.081 c-4.769-9.747-11.696-18.536-20.012-25.503c-0.054-0.044-0.11-0.086-0.163-0.131c-12.808-10.673-29.108-17.091-45.75-18.011 c-0.146-0.008-0.291-0.023-0.437-0.031c6.382-2.372,13.235-4.274,20.546-5.701c9.702-1.895,18.087-7.453,23.609-15.654 c5.522-8.2,7.52-18.06,5.626-27.762c-3.833-19.635-23.792-33.068-43.417-29.237c-71.257,13.909-105.956,55.806-122.517,88.505 c-13.539,26.73-17.133,51.526-18.087,62.87c-13.059,3.79-44.175,15.934-71.381,50.379c-6.878,1.087-13.627,3.446-19.946,7.088 c-13.054,7.523-28.64,7.523-41.692,0c-18.012-10.382-39.521-10.382-57.535,0L3.972,318.127c-3.794,2.187-5.098,7.038-2.91,10.832 C3.25,332.755,8.098,334.056,11.893,331.87z M341.435,189.666c14.469-1.917,29.373,1.346,41.698,9.175 c10.923,6.938,19.598,17.296,24.425,29.306c3.859,9.601,5.269,20.213,4.107,30.492l-70.688-68.91 C341.129,189.708,341.281,189.686,341.435,189.666z M301.828,211.425c5.875-7.012,13.369-12.738,21.674-16.578l83.476,81.376 c-2.372,5.48-5.547,10.651-9.49,15.357c-3.962,4.73-8.548,8.804-13.667,12.151c-0.09,0.059-1.209-0.663-1.324-0.727 c-0.987-0.532-1.987-1.037-3.002-1.513c3.912-1.02,7.436-3.002,10.242-5.863c9.353-9.541,8.163-25.931-2.653-36.535 c-4.646-4.555-10.543-7.482-16.593-8.329c-2.07-3.304-4.877-6.751-8.248-10.056c-3.378-3.311-6.886-6.055-10.235-8.06 c-0.968-6.068-3.979-11.848-8.636-16.413c-5.569-5.46-12.933-8.592-20.206-8.592c-6.348,0-12.163,2.366-16.374,6.66 c-9.353,9.541-8.164,25.93,2.653,36.535c9.568,9.381,26.355,12.361,36.581,1.932c0.938-0.957,1.773-1.999,2.513-3.105 c0.839,0.712,1.707,1.492,2.601,2.37c0.897,0.879,1.695,1.733,2.425,2.559c-1.088,0.761-2.12,1.608-3.06,2.569 c-11.079,11.301-6.152,29.947,5.361,38.889c-1.244-0.965-6.848,0.317-8.383,0.53c-9.787,1.354-17.695,6.493-26.855,10.013 c-0.055,0.021-0.108,0.041-0.162,0.061c-3.87-2.053-7.521-4.507-10.882-7.324C283.207,277.234,279.729,237.799,301.828,211.425z M361.829,268.266c3.959-4.037,10.793-1.137,14.149,2.154c4.494,4.405,5.607,10.865,2.431,14.105 c-3.963,4.042-10.783,1.145-14.149-2.154C359.766,277.965,358.653,271.505,361.829,268.266z M334.695,241.666 c-3.962,4.041-10.783,1.146-14.149-2.154c-4.494-4.407-5.607-10.865-2.431-14.105c3.958-4.036,10.792-1.138,14.149,2.154 C335.625,230.855,338.642,237.64,334.695,241.666z M228.284,260.463c3.753-0.655,6.511-3.885,6.568-7.695 c0.045-3.069,0.903-30.885,16.719-62.109c11.018-21.754,27.652-40.294,47.769-54.024c18.195-12.419,45.071-26.477,67.722-26.477 c10.075,0,18.79,7.193,20.725,17.104c2.212,11.333-5.393,22.603-16.705,24.81c-28.335,5.531-50.847,17.581-66.953,35.795 c-5.301,3.797-10.174,8.26-14.458,13.372c-26.658,31.816-23.625,78.774,6.077,106.976c-3.824-0.937-7.528-2.397-10.98-4.386 c-18.012-10.382-39.521-10.382-57.535,0c-6.368,3.672-13.577,5.612-20.845,5.612c-9.258,0-16.839-3.894-24.962-7.768 c-4.215-2.01-8.584-3.483-13.025-4.415C197.226,266.427,227.964,260.521,228.284,260.463z"/> <circle cx="323.866" cy="278.584" r="12.352"/> </g>
</svg>